<svg width="98" height="98" viewBox="0 0 98 98" fill="none" xmlns="http://www.w3.org/2000/svg">
<path d="M1.15076 48.9844C1.15076 75.4193 22.5807 96.8492 49.0156 96.8492C75.4504 96.8492 96.8799 75.4193 96.8799 48.9844C96.8799 22.5496 75.4504 1.11963 49.0156 1.11963C22.5807 1.11963 1.15076 22.5496 1.15076 48.9844Z" fill="#E6E6E6"/>
<path d="M16.08 14.2557C11.5756 21.5528 8.97574 30.1495 8.97574 39.355C8.97574 65.7899 30.4052 87.2189 56.8401 87.2189C69.6014 87.2189 81.1955 82.2239 89.7761 74.0837C81.3467 87.7435 66.2454 96.8492 49.0156 96.8492C22.5812 96.8492 1.15125 75.4193 1.15125 48.9849C1.15125 35.3109 6.8854 22.9777 16.08 14.2557Z" fill="#D4D4D4"/>
<path d="M68.4668 64.7691C70.6243 63.1168 72.5095 61.2406 74.1221 59.2013C72.4916 64.0011 69.4721 68.3874 65.1458 71.7013C53.5168 80.6095 36.8678 78.4038 27.9591 66.7748C26.15 64.4118 24.8002 61.8413 23.8947 59.1715C34.6999 72.8927 54.5589 75.4231 68.4668 64.7691Z" fill="#291C02"/>
<path d="M32.5047 66.7762C33.586 68.1544 34.8762 69.4285 36.3758 70.5628C45.1483 77.1963 58.0709 76.7889 67.0103 70.128C66.4176 70.6748 65.7985 71.2017 65.1458 71.7013C53.5168 80.6095 36.8678 78.4038 27.9591 66.7748C26.15 64.4118 24.8002 61.8413 23.8947 59.1715C26.3541 62.295 29.2838 64.8367 32.5047 66.7762Z" fill="#241801"/>
<path d="M26.1409 36.2329C26.1409 42.7748 28.6278 48.0774 31.695 48.0774C34.7632 48.0774 37.2505 42.7748 37.2505 36.2329C37.2505 29.6921 34.7632 24.3889 31.695 24.3889C28.6278 24.3889 26.1409 29.6921 26.1409 36.2329Z" fill="#291C02"/>
<path d="M28.52 26.5176C28.1116 28.1665 27.8791 30.0451 27.8791 32.0395C27.8791 38.5814 30.3664 43.8845 33.4341 43.8845C34.6152 43.8845 35.7093 43.0957 36.6086 41.7564C35.6781 45.5145 33.8273 48.0775 31.6949 48.0775C28.6277 48.0775 26.1408 42.7748 26.1408 36.233C26.1408 32.2101 27.0823 28.6575 28.52 26.5176Z" fill="#241801"/>
<path d="M60.7813 36.2329C60.7813 42.7748 63.2681 48.0774 66.3358 48.0774C69.4035 48.0774 71.8904 42.7748 71.8904 36.2329C71.8904 29.6921 69.4035 24.3889 66.3358 24.3889C63.2681 24.3889 60.7813 29.6921 60.7813 36.2329Z" fill="#291C02"/>
<path d="M63.1608 26.5176C62.752 28.1665 62.52 30.0451 62.52 32.0395C62.52 38.5814 65.0068 43.8845 68.0745 43.8845C69.2556 43.8845 70.3497 43.0957 71.25 41.7564C70.3185 45.5145 68.4682 48.0775 66.3358 48.0775C63.2681 48.0775 60.7813 42.7748 60.7813 36.233C60.7813 32.2101 61.7227 28.6575 63.1608 26.5176Z" fill="#241801"/>
</svg>
