<svg width="90" height="90" viewBox="0 0 90 90" fill="none" xmlns="http://www.w3.org/2000/svg">
<path d="M10.9639 6.88062H79.1366V83.1532H10.9639V6.88062Z" fill="#E6E6E6"/>
<path d="M13.0481 44.911C13.0481 56.5725 13.0481 68.2279 13.0481 79.8837C13.0481 81.7669 13.2981 82.0169 15.1805 82.0521C15.3081 82.0577 15.4418 82.0577 15.5694 82.0577C35.2239 82.0577 54.878 82.0577 74.532 82.0577C76.9604 82.0577 77.1058 81.9011 77.1058 79.4419C77.1058 56.4853 77.1002 33.5226 77.1002 10.566C77.1002 8.11286 76.9665 7.95574 74.532 7.95574C57.1206 7.95574 39.7148 7.95574 22.3029 7.95574C19.828 7.95574 17.3532 7.93838 14.884 7.97353C13.3619 7.99654 13.0715 8.33942 13.0481 9.83942C13.0424 10.1359 13.0481 10.4267 13.0481 10.7231C13.0481 22.1172 13.0481 33.5169 13.0481 44.911ZM83.0025 45.0213C83.0025 56.5781 82.9908 68.1293 83.0142 79.6858C83.0199 82.1506 82.1427 84.1914 80.3532 85.8425C78.8311 87.2431 77.042 87.9814 74.9561 87.9814C55.0464 87.9814 35.1366 87.9874 15.2269 87.9814C10.736 87.9814 7.15703 84.3715 7.15139 79.8199C7.13403 68.2978 7.13967 56.77 7.13967 45.2483C7.13967 33.7205 7.21519 22.1984 7.10495 10.6706C7.0585 5.81685 10.5906 2.61372 13.9834 2.12544C14.4309 2.06121 14.8897 2.0382 15.3428 2.0382C35.1887 2.03213 55.0346 2.03213 74.8806 2.04384C78.7382 2.04384 82.0615 4.72961 82.8632 8.50261C83.0199 9.2231 82.9969 9.99046 82.9969 10.7348C83.0086 22.1636 83.0025 33.5925 83.0025 45.0213Z" fill="#D4D4D4"/>
<path d="M45.0654 37.3885C36.9318 37.3885 28.7981 37.3885 20.6705 37.3885C18.7182 37.3885 18.1318 36.7956 18.1258 34.8191C18.1201 30.7791 18.1201 19.3208 18.1201 15.2865C18.1258 13.7865 18.8927 12.9961 20.4031 12.9961C36.8619 12.9905 53.315 12.9905 69.7738 13.0018C71.2903 13.0018 72.0455 13.7926 72.0455 15.3099C72.0455 19.379 72.0398 30.872 72.0337 34.9354C72.0281 36.7435 71.3775 37.3885 69.5533 37.3885C61.3905 37.3946 53.2278 37.3946 45.0654 37.3946C45.0654 37.3885 45.0654 37.3885 45.0654 37.3885Z" fill="black"/>
<path d="M66.7475 49.1141H52.6646V53.0668H66.7475V49.1141Z" fill="black"/>
<path d="M28.7227 59.2522H32.7257V53.0903H38.8551V49.0616H32.691V42.9171H28.7054V49.0851H22.5474V53.1077H28.7227V59.2522Z" fill="black"/>
<path d="M66.7531 65.5773H52.6763V69.4779H66.7531V65.5773Z" fill="black"/>
<path d="M52.6819 71.2162V75.0934H66.7587V71.2162H52.6819Z" fill="black"/>
<path d="M38.8489 64.9727L36.0199 62.1007L30.605 67.5248L25.3645 62.2522L22.4426 65.0425L27.851 70.408L22.6866 75.5643L22.6167 75.6285L25.3241 78.5582L30.7156 73.1576L36.0602 78.5408L38.9188 75.6689L33.5099 70.309L38.8489 64.9727Z" fill="black"/>
</svg>
