<svg width="96" height="96" viewBox="0 0 96 96" fill="none" xmlns="http://www.w3.org/2000/svg">
<g clip-path="url(#clip0_5397_9443)">
<path d="M61.3389 74.6787H34.6597C34.5505 74.6787 34.4417 74.6843 34.3329 74.6949C34.2241 74.7056 34.1162 74.7213 34.0093 74.7426C33.9018 74.7639 33.7963 74.7907 33.6917 74.8222C33.587 74.8542 33.4843 74.8907 33.3833 74.9324C33.2829 74.9745 33.1838 75.0208 33.0875 75.0727C32.9912 75.1241 32.8977 75.1801 32.8069 75.2407C32.7162 75.3014 32.6287 75.3662 32.544 75.4357C32.4597 75.5051 32.3787 75.5782 32.3018 75.6556C32.2245 75.7329 32.1509 75.8134 32.0819 75.8982C32.0125 75.9824 31.9477 76.0699 31.887 76.1607C31.8264 76.2519 31.7699 76.3454 31.7185 76.4417C31.6671 76.538 31.6204 76.6366 31.5787 76.7375C31.537 76.8384 31.5 76.9412 31.4685 77.0454C31.4366 77.15 31.4102 77.256 31.3889 77.363C31.3676 77.4699 31.3518 77.5782 31.3407 77.6866C31.3301 77.7954 31.325 77.9042 31.325 78.0134C31.325 78.2866 31.3315 78.5593 31.3449 78.832C31.3583 79.1042 31.3782 79.3764 31.4051 79.6482C31.4319 79.9195 31.4653 80.1903 31.5056 80.4602C31.5454 80.7301 31.5921 80.9991 31.6454 81.2667C31.6986 81.5343 31.7583 81.8005 31.8245 82.0653C31.8907 82.3301 31.9634 82.5926 32.0431 82.8542C32.1222 83.1153 32.2079 83.3741 32.2995 83.631C32.3917 83.888 32.4898 84.1426 32.594 84.3945C32.6986 84.6468 32.8093 84.8963 32.9259 85.1431C33.0426 85.3894 33.1653 85.6333 33.294 85.8741C33.4222 86.1144 33.5569 86.3519 33.6972 86.5861C33.8375 86.8199 33.9833 87.0505 34.1352 87.2773C34.2866 87.5042 34.4435 87.7273 34.6065 87.9468C34.769 88.1657 34.9366 88.381 35.1097 88.5917C35.2829 88.8028 35.4611 89.0093 35.6444 89.2116C35.8278 89.4139 36.0157 89.6111 36.2088 89.8042C36.4018 89.9972 36.5991 90.1852 36.8014 90.3685C37.0037 90.5519 37.2102 90.7301 37.4213 90.9032C37.6319 91.0764 37.8472 91.244 38.0662 91.4065C38.2856 91.5695 38.5088 91.7264 38.7356 91.8778C38.9625 92.0296 39.1931 92.1755 39.4268 92.3157C39.6611 92.456 39.8986 92.5907 40.1389 92.7195C40.3796 92.8477 40.6236 92.9704 40.8699 93.087C41.1167 93.2037 41.3662 93.3144 41.6185 93.419C41.8704 93.5232 42.125 93.6213 42.3819 93.7134C42.6389 93.8051 42.8977 93.8907 43.1593 93.9699C43.4204 94.0495 43.6833 94.1222 43.9477 94.1884C44.2125 94.2546 44.4787 94.3144 44.7463 94.3676C45.0139 94.4208 45.2829 94.4676 45.5528 94.5079C45.8227 94.5477 46.0935 94.581 46.3648 94.6079C46.6366 94.6347 46.9088 94.6546 47.181 94.6681C47.4537 94.6815 47.7264 94.688 47.9995 94.688C48.2722 94.688 48.5449 94.6815 48.8176 94.6681C49.0903 94.6546 49.362 94.6347 49.6338 94.6079C49.9056 94.581 50.1759 94.5477 50.4458 94.5074C50.7162 94.4676 50.9847 94.4208 51.2523 94.3676C51.5199 94.3144 51.7861 94.2546 52.0509 94.1884C52.3157 94.1222 52.5787 94.0495 52.8398 93.9699C53.1009 93.8907 53.3597 93.8051 53.6167 93.7134C53.8736 93.6213 54.1282 93.5232 54.3806 93.419C54.6324 93.3144 54.8819 93.2037 55.1287 93.087C55.3755 92.9704 55.619 92.8477 55.8597 92.7195C56.1005 92.5907 56.338 92.456 56.5718 92.3157C56.806 92.1755 57.0366 92.0296 57.2634 91.8778C57.4903 91.7264 57.7134 91.5695 57.9324 91.4065C58.1514 91.244 58.3667 91.0764 58.5778 90.9032C58.7884 90.7301 58.9954 90.5519 59.1972 90.3685C59.3995 90.1852 59.5972 89.9972 59.7903 89.8042C59.9829 89.6111 60.1713 89.4139 60.3546 89.2116C60.5375 89.0093 60.7157 88.8028 60.8889 88.5917C61.062 88.381 61.2301 88.1657 61.3926 87.9468C61.5551 87.7273 61.712 87.5042 61.8639 87.2773C62.0153 87.0505 62.1611 86.8199 62.3018 86.5861C62.4421 86.3519 62.5764 86.1144 62.7051 85.8741C62.8338 85.6333 62.9565 85.3894 63.0731 85.1431C63.1898 84.8963 63.3005 84.6468 63.4046 84.3945C63.5093 84.1426 63.6074 83.888 63.6991 83.631C63.7912 83.3741 63.8769 83.1153 63.956 82.8542C64.0352 82.5926 64.1079 82.3301 64.1741 82.0653C64.2407 81.8005 64.3005 81.5343 64.3537 81.2667C64.4069 80.9991 64.4532 80.7301 64.4935 80.4602C64.5333 80.1903 64.5671 79.9195 64.5935 79.6482C64.6204 79.3764 64.6403 79.1042 64.6537 78.832C64.6671 78.5593 64.6741 78.2866 64.6741 78.0134C64.6741 77.9042 64.6685 77.7954 64.6579 77.6866C64.6472 77.5778 64.6315 77.4699 64.6102 77.363C64.5889 77.256 64.562 77.15 64.5306 77.0454C64.4991 76.9407 64.462 76.838 64.4204 76.737C64.3787 76.6361 64.3319 76.5375 64.2806 76.4412C64.2292 76.3449 64.1727 76.2514 64.112 76.1607C64.0514 76.0699 63.9866 75.982 63.9171 75.8977C63.8481 75.8134 63.7745 75.7324 63.6972 75.6551C63.6204 75.5778 63.5393 75.5046 63.4551 75.4352C63.3704 75.3662 63.2829 75.3009 63.1921 75.2403C63.1014 75.1796 63.0074 75.1236 62.9111 75.0722C62.8148 75.0208 62.7162 74.9741 62.6153 74.9324C62.5144 74.8907 62.4116 74.8537 62.3074 74.8222C62.2028 74.7903 62.0968 74.7639 61.9898 74.7426C61.8824 74.7213 61.7745 74.7056 61.6657 74.6945C61.5574 74.6838 61.4481 74.6787 61.3389 74.6787Z" fill="black"/>
<path d="M87.4181 72.0773C87.0125 72.95 86.5236 73.7727 85.9505 74.5454C85.2634 75.4468 84.487 76.2634 83.6204 76.9949C82.7542 77.7259 81.819 78.3547 80.8148 78.8806C79.987 79.3014 79.1366 79.6699 78.2639 79.9866C77.3912 80.3033 76.5019 80.5653 75.5972 80.7736C74.6921 80.9815 73.7778 81.1334 72.8542 81.2297C71.931 81.3259 71.0051 81.3653 70.0764 81.3486H25.9222C17.7519 81.3486 11.2486 77.8801 8.58055 72.0773C8.44074 71.7602 8.31204 71.438 8.19491 71.1116C8.07824 70.7852 7.97315 70.4547 7.87963 70.1204C7.78657 69.7861 7.70555 69.4491 7.63657 69.1093C7.56759 68.7695 7.51065 68.4273 7.46666 68.0834C7.42222 67.7394 7.39028 67.394 7.37083 67.0477C7.35139 66.7014 7.34398 66.3547 7.34954 66.0079C7.35509 65.6607 7.37315 65.3148 7.40324 64.969C7.43379 64.6236 7.47639 64.2796 7.53148 63.9371C7.58657 63.5945 7.65416 63.2542 7.73379 62.9167C7.81342 62.5792 7.90509 62.2449 8.00879 61.9139C8.11204 61.5824 8.22778 61.2556 8.35463 60.9329C8.48194 60.6102 8.62083 60.2926 8.77083 59.9796C8.92083 59.6671 9.08194 59.3597 9.25416 59.0588C9.42639 58.7574 9.60879 58.463 9.80231 58.175C9.99583 57.8871 10.1991 57.606 10.4125 57.3329C10.6264 57.0593 10.8491 56.794 11.0819 56.5366C12.956 54.2935 14.7208 51.9676 16.3759 49.5584C18.031 47.1486 19.569 44.6671 20.9903 42.113C22.4116 39.5584 23.7093 36.9431 24.8843 34.2667C26.0588 31.5898 27.1056 28.8644 28.0231 26.0889C28.9903 23.3547 29.6907 20.8866 30.2245 18.819C30.5579 17.4852 30.8245 16.3509 31.0245 15.3838C31.075 15.1431 31.1301 14.9037 31.1903 14.6648C31.2505 14.4264 31.3153 14.1894 31.3856 13.9537C31.4556 13.7176 31.5306 13.4838 31.6102 13.2509C31.6903 13.0181 31.775 12.7875 31.8644 12.5584C31.9537 12.3292 32.0481 12.1019 32.1468 11.8769C32.2458 11.6514 32.3495 11.4287 32.4574 11.2074C32.5657 10.9866 32.6787 10.7681 32.7958 10.5519C32.9134 10.3357 33.0352 10.1222 33.1616 9.91113C33.288 9.70002 33.4185 9.49169 33.5532 9.28613C33.6884 9.08058 33.8273 8.8778 33.9708 8.6778C34.1144 8.4778 34.262 8.28104 34.4134 8.08752C34.5653 7.894 34.7208 7.70326 34.8801 7.51622C35.0398 7.32919 35.2032 7.14539 35.3704 6.96484C35.5375 6.78428 35.7088 6.60789 35.8833 6.43428C36.0579 6.26113 36.2361 6.09169 36.4176 5.92595C36.5995 5.76021 36.7843 5.59817 36.9727 5.43984C37.1611 5.28197 37.3528 5.1278 37.5477 4.9778C37.7426 4.8278 37.9407 4.6815 38.1417 4.53984C38.3426 4.39817 38.5463 4.26021 38.7532 4.12687C38.9597 3.99354 39.169 3.86484 39.381 3.7403C39.5931 3.6153 39.8079 3.49539 40.025 3.37965C40.2421 3.26391 40.4616 3.1528 40.6833 3.04632C40.9051 2.93984 41.1287 2.83798 41.3546 2.74076C41.5806 2.644 41.8083 2.55141 42.0384 2.46391C42.2681 2.37595 42.4995 2.29308 42.7329 2.2153C42.9662 2.13706 43.2009 2.06437 43.4375 1.99585C43.6736 1.9278 43.9116 1.86437 44.1505 1.80604C44.3894 1.74771 44.6296 1.69447 44.8708 1.64632C45.112 1.59817 45.3537 1.55465 45.5968 1.51669C45.8398 1.47872 46.0838 1.44539 46.3278 1.41761C46.5722 1.38937 46.8171 1.36669 47.0625 1.34863C47.3079 1.33104 47.5532 1.31808 47.7995 1.31067H48.1662C48.4125 1.31808 48.6583 1.33011 48.9042 1.34771C49.1495 1.36484 49.3949 1.38752 49.6394 1.4153C49.8843 1.44308 50.1282 1.47595 50.3718 1.51345C50.6153 1.55141 50.8574 1.59447 51.0991 1.64261C51.3407 1.6903 51.581 1.74354 51.8204 1.80141C52.0597 1.85928 52.2981 1.92271 52.5347 1.9903C52.7713 2.05835 53.0065 2.1315 53.2403 2.20928C53.4741 2.28706 53.706 2.36947 53.9361 2.45697C54.1662 2.54447 54.3949 2.63659 54.6213 2.73382C54.8477 2.83058 55.0718 2.93243 55.294 3.03891C55.5162 3.14539 55.7356 3.25604 55.9532 3.37178C56.1708 3.48706 56.3856 3.60743 56.5981 3.73197C56.8106 3.8565 57.0208 3.98521 57.2278 4.11854C57.4347 4.25187 57.6389 4.38937 57.8403 4.53104C58.0417 4.67317 58.2403 4.819 58.4356 4.969C58.6306 5.119 58.8227 5.27317 59.0116 5.4315C59.2005 5.58937 59.3861 5.75141 59.5681 5.91761C59.75 6.08335 59.9287 6.2528 60.1037 6.42595C60.2787 6.59956 60.45 6.77641 60.6176 6.95696C60.7852 7.13706 60.9491 7.32132 61.1088 7.50835C61.269 7.69585 61.4245 7.88613 61.5769 8.08011C61.7287 8.27409 61.8764 8.47085 62.0204 8.67085C62.1639 8.87085 62.3037 9.07363 62.4389 9.27965C62.5741 9.48521 62.7051 9.694 62.8315 9.90511C62.9583 10.1167 63.0801 10.3301 63.1981 10.5468C63.3157 10.763 63.4287 10.982 63.537 11.2028C63.6458 11.4241 63.7495 11.6472 63.8486 11.8727C63.9481 12.0982 64.0426 12.3255 64.1319 12.5551C64.2218 12.7843 64.3065 13.0153 64.3866 13.2486C64.4667 13.4815 64.5421 13.7158 64.612 13.9519C64.6824 14.188 64.7477 14.4255 64.8079 14.6644C64.8685 14.9028 64.9236 15.1431 64.9741 15.3838C65.3815 17.2644 65.844 19.131 66.3625 20.9843C66.881 22.8371 67.4542 24.6732 68.0815 26.4921C68.7093 28.3107 69.3903 30.1093 70.125 31.8875C70.8597 33.6662 71.6463 35.4209 72.4856 37.1523C73.3245 38.8838 74.2144 40.5889 75.1551 42.2676C76.0958 43.9463 77.0852 45.5954 78.1241 47.2148C79.1625 48.8343 80.2486 50.4218 81.3815 51.9769C82.5148 53.532 83.6931 55.0519 84.9167 56.5366C85.1495 56.794 85.3727 57.0593 85.5861 57.3329C85.7995 57.606 86.0032 57.8871 86.1968 58.175C86.3898 58.463 86.5727 58.7574 86.7449 59.0588C86.9171 59.3597 87.0782 59.6671 87.2282 59.9796C87.3782 60.2926 87.5167 60.6102 87.644 60.9329C87.7713 61.2556 87.8866 61.5824 87.9903 61.9139C88.094 62.2449 88.1856 62.5792 88.2653 62.9167C88.3449 63.2547 88.412 63.5945 88.4671 63.9371C88.5222 64.2796 88.5653 64.6236 88.5954 64.969C88.6259 65.3148 88.6435 65.6611 88.6491 66.0079C88.6546 66.3547 88.6477 66.7014 88.6282 67.0477C88.6088 67.394 88.5769 67.7394 88.5324 68.0834C88.488 68.4273 88.4315 68.7695 88.3625 69.1093C88.2935 69.4491 88.2125 69.7861 88.119 70.1204C88.0259 70.4547 87.9208 70.7852 87.8037 71.1116C87.6866 71.438 87.5583 71.7602 87.4181 72.0773Z" fill="#E6E6E6"/>
<mask id="mask0_5397_9443" style="mask-type:alpha" maskUnits="userSpaceOnUse" x="-10" y="-10" width="116" height="116">
<path d="M105.6 -9.59998H-9.60001V105.6H105.6V-9.59998Z" fill="black" fill-opacity="0.2"/>
</mask>
<g mask="url(#mask0_5397_9443)">
<path d="M87.4181 72.0773C87.0204 72.9523 86.5204 73.7639 85.9171 74.5121C85.8366 74.6398 85.7472 74.7625 85.6505 74.8787C85.5792 75.0246 85.4792 75.1468 85.3505 75.2459C84.9421 75.7153 84.5088 76.1597 84.0495 76.5797C83.5843 77.0477 83.0727 77.4593 82.5157 77.8134C82.3491 77.9468 82.1491 78.0801 81.9486 78.2139C81.5824 78.4556 81.2046 78.6783 80.8148 78.8806L28.0231 26.0889C28.9903 23.3547 29.6907 20.8866 30.2245 18.819L58.0042 46.5986V4.71252C58.4435 5.03197 58.8676 5.37039 59.2764 5.72873C59.6852 6.0866 60.0769 6.46252 60.4509 6.85651C60.8255 7.25002 61.1815 7.65975 61.5185 8.08614C61.856 8.51206 62.1731 8.95234 62.4699 9.40743C62.7671 9.86252 63.0431 10.3297 63.2977 10.8097C63.5523 11.2898 63.7847 11.7806 63.9944 12.2815C64.2046 12.7829 64.3912 13.2926 64.5546 13.8107C64.7185 14.3287 64.8583 14.8533 64.9741 15.3838C65.3815 17.2644 65.844 19.131 66.3625 20.9843C66.881 22.8371 67.4542 24.6732 68.0815 26.4922C68.7093 28.3107 69.3903 30.1093 70.125 31.8875C70.8597 33.6662 71.6463 35.4209 72.4856 37.1523C73.3245 38.8838 74.2144 40.5889 75.1551 42.2676C76.0958 43.9463 77.0852 45.5954 78.1241 47.2148C79.1625 48.8343 80.2486 50.4218 81.3815 51.9769C82.5148 53.532 83.6931 55.0519 84.9167 56.5366C85.1495 56.794 85.3727 57.0593 85.5861 57.3329C85.7995 57.606 86.0032 57.8871 86.1968 58.175C86.3898 58.463 86.5727 58.7574 86.7449 59.0588C86.9171 59.3597 87.0782 59.6672 87.2282 59.9797C87.3782 60.2926 87.5167 60.6102 87.644 60.9329C87.7713 61.2556 87.8866 61.5824 87.9903 61.9139C88.094 62.2449 88.1856 62.5792 88.2653 62.9167C88.3449 63.2547 88.412 63.5945 88.4671 63.9371C88.5222 64.2797 88.5653 64.6236 88.5954 64.969C88.6259 65.3148 88.6435 65.6611 88.6491 66.0079C88.6546 66.3547 88.6477 66.7014 88.6282 67.0477C88.6088 67.394 88.5769 67.7394 88.5324 68.0834C88.488 68.4273 88.4315 68.7695 88.3625 69.1093C88.2935 69.4491 88.2125 69.7861 88.119 70.1204C88.0259 70.4547 87.9208 70.7852 87.8037 71.1116C87.6866 71.438 87.5583 71.7602 87.4181 72.0773Z" fill="black"/>
</g>
<mask id="mask1_5397_9443" style="mask-type:alpha" maskUnits="userSpaceOnUse" x="-10" y="-10" width="116" height="116">
<path d="M105.6 -9.59998H-9.60001V105.6H105.6V-9.59998Z" fill="black" fill-opacity="0.098"/>
</mask>
<g mask="url(#mask1_5397_9443)">
<path d="M85.9505 74.5454C85.7505 74.7788 85.5838 75.0121 85.3505 75.2459C85.5685 75.0237 85.7574 74.7788 85.9171 74.5121L85.9505 74.5454Z" fill="black"/>
</g>
<mask id="mask2_5397_9443" style="mask-type:alpha" maskUnits="userSpaceOnUse" x="-10" y="-10" width="116" height="116">
<path d="M105.6 -9.59998H-9.60001V105.6H105.6V-9.59998Z" fill="black" fill-opacity="0.2"/>
</mask>
<g mask="url(#mask2_5397_9443)">
<path d="M85.9505 74.5454C85.8597 74.6649 85.7597 74.776 85.6505 74.8788C85.7472 74.7625 85.8366 74.6399 85.9171 74.5121L85.9505 74.5454Z" fill="black"/>
</g>
<path d="M91.3532 94.688C91.1343 94.6884 90.9171 94.6672 90.7023 94.6246C90.4875 94.582 90.2792 94.5185 90.0768 94.4347C89.8745 94.351 89.6824 94.2482 89.5005 94.1264C89.3185 94.0047 89.15 93.8662 88.9954 93.7111L2.28796 7.00326C2.21157 6.92595 2.13935 6.84493 2.07129 6.76021C2.00324 6.67595 1.93935 6.58845 1.87963 6.49771C1.81991 6.40697 1.76528 6.31345 1.71435 6.21715C1.66389 6.12085 1.61852 6.02271 1.57731 5.92224C1.53657 5.82132 1.50092 5.719 1.46991 5.61484C1.43889 5.51113 1.41342 5.40558 1.39259 5.2991C1.37222 5.19215 1.35694 5.08474 1.34676 4.97687C1.33657 4.86854 1.33194 4.76021 1.33241 4.65187C1.33287 4.54308 1.33842 4.43474 1.34954 4.32687C1.36065 4.219 1.37685 4.1116 1.39861 4.00511C1.41991 3.89863 1.44676 3.79354 1.4787 3.68984C1.51018 3.58613 1.54722 3.48382 1.58889 3.38382C1.63055 3.28335 1.67731 3.18567 1.7287 3.08984C1.78009 2.99447 1.83565 2.90141 1.89629 2.81113C1.95694 2.72085 2.02129 2.63382 2.09028 2.55002C2.15926 2.46623 2.23194 2.38567 2.30879 2.30882C2.38565 2.23197 2.4662 2.15928 2.55 2.0903C2.63379 2.02132 2.72083 1.95697 2.81111 1.89632C2.90139 1.83567 2.99444 1.78011 3.08981 1.72873C3.18565 1.67734 3.28333 1.63058 3.38379 1.58891C3.48379 1.54724 3.58611 1.51021 3.68981 1.47873C3.79352 1.44678 3.89861 1.41993 4.00509 1.39863C4.11157 1.37687 4.21898 1.36067 4.32685 1.34956C4.43472 1.33845 4.54305 1.33289 4.65185 1.33243C4.76018 1.33197 4.86852 1.3366 4.97685 1.34678C5.08472 1.35697 5.19213 1.37224 5.29907 1.39261C5.40555 1.41345 5.51111 1.43891 5.61481 1.46993C5.71898 1.50095 5.82129 1.5366 5.92222 1.57734C6.02268 1.61854 6.12083 1.66391 6.21713 1.71437C6.31342 1.7653 6.40694 1.81993 6.49768 1.87965C6.58842 1.93937 6.67592 2.00326 6.76018 2.07132C6.84491 2.13984 6.92592 2.2116 7.00324 2.28798L93.7111 88.9954C93.8268 89.1116 93.9338 89.2352 94.0315 89.3671C94.1292 89.4986 94.2167 89.6371 94.294 89.7815C94.3713 89.9259 94.4375 90.0755 94.4926 90.2301C94.5477 90.3843 94.5912 90.5422 94.6236 90.7028C94.6555 90.8634 94.6755 91.0259 94.6833 91.1898C94.6917 91.3537 94.6875 91.5172 94.6713 91.6801C94.6551 91.8435 94.6273 92.0047 94.5875 92.1635C94.5477 92.3227 94.4963 92.4778 94.4338 92.6292C94.3708 92.781 94.2972 92.9269 94.213 93.0676C94.1287 93.2084 94.0347 93.3422 93.9305 93.4685C93.8264 93.5954 93.7139 93.7139 93.5921 93.8241C93.4708 93.9343 93.3421 94.0347 93.2056 94.1259C93.0694 94.2172 92.9268 94.2977 92.7787 94.3676C92.6305 94.438 92.4782 94.4968 92.3213 94.5445C92.1643 94.5922 92.0046 94.6278 91.8426 94.6519C91.6801 94.6759 91.5171 94.688 91.3532 94.688Z" fill="#D4D4D4"/>
<mask id="mask3_5397_9443" style="mask-type:alpha" maskUnits="userSpaceOnUse" x="-10" y="-10" width="116" height="116">
<path d="M105.6 -9.59998H-9.60001V105.6H105.6V-9.59998Z" fill="black" fill-opacity="0.2"/>
</mask>
<g mask="url(#mask3_5397_9443)">
<path d="M38.0935 91.3496C38.8023 91.8852 39.5491 92.3602 40.3347 92.7755C41.1199 93.1903 41.9333 93.5394 42.7755 93.8232C43.6171 94.107 44.4759 94.3213 45.3523 94.4662C46.2287 94.6116 47.1111 94.6852 47.9995 94.688C48.237 94.688 48.475 94.6824 48.7125 94.6718C48.95 94.6616 49.1875 94.6459 49.4241 94.6255C49.6611 94.6047 49.8977 94.5792 50.1333 94.5482C50.3694 94.5176 50.6042 94.482 50.8384 94.4412C51.0727 94.4005 51.306 94.3547 51.5384 94.3037C51.7708 94.2533 52.0023 94.1977 52.2319 94.1371C52.462 94.0764 52.6907 94.0107 52.9176 93.9403C53.1449 93.8699 53.3704 93.7949 53.5944 93.7148C53.8185 93.6352 54.0407 93.55 54.2611 93.4607C54.4815 93.3713 54.6995 93.2773 54.9157 93.1783C55.1324 93.0797 55.3463 92.9759 55.5583 92.8681C55.7704 92.7602 55.9796 92.6477 56.187 92.531C56.394 92.4139 56.5986 92.2926 56.8005 92.1672C57.0023 92.0412 57.2014 91.9116 57.3977 91.7773C57.594 91.6431 57.7875 91.5051 57.9782 91.3625C58.1685 91.2199 58.356 91.0736 58.5403 90.9232C58.7241 90.7727 58.9051 90.6185 59.0829 90.4607C59.2607 90.3023 59.4347 90.1403 59.6056 89.975C59.7759 89.8093 59.9431 89.6403 60.1065 89.4676C60.2699 89.2949 60.4296 89.1185 60.5857 88.9389C60.7417 88.7597 60.894 88.5769 61.0421 88.3908C61.1903 88.2047 61.3343 88.0158 61.4745 87.8232C61.6144 87.631 61.7505 87.4361 61.882 87.238C62.0139 87.0403 62.1412 86.8394 62.2644 86.6361C62.3875 86.4324 62.5065 86.2264 62.6208 86.0181C62.7352 85.8093 62.8449 85.5986 62.9505 85.3857C63.0556 85.1722 63.1565 84.957 63.2528 84.7394C63.3486 84.5218 63.4403 84.3023 63.5269 84.081C63.6139 83.8597 63.6958 83.6366 63.7732 83.4116C63.8505 83.1866 63.9227 82.9602 63.9903 82.732C64.0579 82.5042 64.1208 82.2746 64.1782 82.044C64.2361 81.8134 64.2889 81.5815 64.337 81.3486H55.3074C55.0903 81.7246 54.8616 82.0935 54.6204 82.4551C54.3796 82.8162 54.1269 83.1695 53.863 83.5144C53.5991 83.8593 53.3241 84.1949 53.038 84.5222C52.7523 84.8491 52.456 85.1662 52.1495 85.4741C51.8426 85.7815 51.5264 86.0787 51.2005 86.3658C50.8745 86.6528 50.5394 86.9287 50.1954 87.194C49.8514 87.4593 49.4995 87.713 49.1389 87.9551C48.7782 88.1972 48.4102 88.4273 48.0347 88.6459C47.6593 88.8639 47.2769 89.0695 46.888 89.263C46.4991 89.456 46.1042 89.6366 45.7032 89.8042C45.3028 89.9713 44.8968 90.1259 44.4861 90.2667C44.0755 90.4079 43.6602 90.5352 43.2412 90.6496C42.8222 90.7634 42.4 90.8634 41.9741 90.95C41.5486 91.0366 41.1204 91.1088 40.6903 91.1676C40.2597 91.2259 39.8282 91.2704 39.3949 91.3009C38.9616 91.331 38.5278 91.3477 38.0935 91.3496Z" fill="black"/>
</g>
<mask id="mask4_5397_9443" style="mask-type:alpha" maskUnits="userSpaceOnUse" x="-10" y="-10" width="116" height="116">
<path d="M105.6 -9.59998H-9.60001V105.6H105.6V-9.59998Z" fill="black" fill-opacity="0.2"/>
</mask>
<g mask="url(#mask4_5397_9443)">
<path d="M58.0042 71.3681C58.0037 72.2413 57.9463 73.1102 57.8315 73.9755C57.7162 74.8408 57.5449 75.6945 57.3176 76.5371C57.0898 77.3797 56.8079 78.2038 56.4713 79.0093C56.1347 79.8144 55.7468 80.5945 55.3074 81.3487H70.0768C72.0667 81.3561 74.0306 81.1348 75.969 80.6848L58.0042 62.72V71.3681Z" fill="black"/>
</g>
<path d="M93.7111 88.9954L82.5227 77.8074L58.0042 53.2885V62.7199L88.9954 93.7111C89.0727 93.7871 89.1537 93.8593 89.2384 93.9273C89.3227 93.9959 89.4106 94.0597 89.5014 94.119C89.5921 94.1787 89.6856 94.2338 89.7815 94.2843C89.8778 94.3347 89.9759 94.3806 90.0769 94.4213C90.1773 94.4625 90.2796 94.4982 90.3838 94.5292C90.488 94.5602 90.5931 94.5857 90.7 94.6065C90.8065 94.6269 90.9139 94.6422 91.0222 94.6523C91.1301 94.6625 91.2384 94.6672 91.3472 94.6667C91.4556 94.6662 91.5639 94.6607 91.6722 94.6496C91.7801 94.6385 91.887 94.6222 91.9935 94.6005C92.1 94.5792 92.2051 94.5523 92.3093 94.5204C92.413 94.4889 92.5148 94.4519 92.6153 94.4102C92.7153 94.3685 92.8134 94.3218 92.9093 94.2704C93.0046 94.219 93.0977 94.1635 93.188 94.1028C93.2782 94.0426 93.3653 93.9778 93.4491 93.9088C93.5329 93.8398 93.6134 93.7672 93.6903 93.6903C93.7671 93.6135 93.8398 93.5329 93.9088 93.4491C93.9778 93.3653 94.0426 93.2783 94.1028 93.188C94.1634 93.0977 94.219 93.0047 94.2704 92.9093C94.3218 92.8134 94.3685 92.7153 94.4102 92.6153C94.4519 92.5148 94.4889 92.413 94.5204 92.3093C94.5523 92.2051 94.5792 92.1 94.6005 91.9935C94.6222 91.8875 94.6384 91.7801 94.6495 91.6722C94.6606 91.5639 94.6662 91.4556 94.6667 91.3472C94.6671 91.2385 94.6625 91.1301 94.6523 91.0222C94.6421 90.9139 94.6269 90.8065 94.6065 90.7C94.5856 90.5931 94.5602 90.488 94.5292 90.3838C94.4981 90.2797 94.4625 90.1773 94.4213 90.0769C94.3806 89.976 94.3347 89.8778 94.2843 89.7815C94.2338 89.6857 94.1787 89.5922 94.119 89.5014C94.0597 89.4107 93.9958 89.3227 93.9273 89.2385C93.8593 89.1537 93.787 89.0727 93.7111 88.9954Z" fill="#D4D4D4"/>
<mask id="mask5_5397_9443" style="mask-type:alpha" maskUnits="userSpaceOnUse" x="-10" y="-10" width="116" height="116">
<path d="M105.6 -9.59998H-9.60001V105.6H105.6V-9.59998Z" fill="black" fill-opacity="0.2"/>
</mask>
<g mask="url(#mask5_5397_9443)">
<path d="M93.7111 88.9954L58.0042 53.2885V62.7199L88.9954 93.7111C89.0727 93.788 89.1537 93.8602 89.2384 93.9287C89.3227 93.9977 89.4102 94.0621 89.5009 94.1218C89.5917 94.182 89.6852 94.2375 89.7815 94.2885C89.8778 94.3389 89.9764 94.3852 90.0769 94.4264C90.1778 94.4676 90.2801 94.5037 90.3843 94.5352C90.4889 94.5662 90.5944 94.5922 90.7009 94.613C90.8079 94.6338 90.9153 94.6496 91.0236 94.6597C91.1319 94.6704 91.2407 94.675 91.3495 94.675C91.4583 94.6746 91.5667 94.669 91.675 94.6579C91.7833 94.6472 91.8907 94.631 91.9977 94.6093C92.1042 94.588 92.2097 94.5616 92.3139 94.5297C92.4181 94.4977 92.5204 94.4611 92.6208 94.4195C92.7213 94.3773 92.8194 94.331 92.9153 94.2797C93.0111 94.2283 93.1042 94.1722 93.1949 94.1116C93.2852 94.051 93.3727 93.9861 93.4565 93.9172C93.5407 93.8482 93.6213 93.775 93.6981 93.6982C93.775 93.6213 93.8481 93.5408 93.9171 93.4565C93.9861 93.3727 94.0509 93.2852 94.1116 93.1949C94.1722 93.1042 94.2282 93.0111 94.2796 92.9153C94.331 92.8195 94.3773 92.7213 94.4194 92.6209C94.4611 92.5199 94.4977 92.4181 94.5296 92.3139C94.5611 92.2097 94.588 92.1042 94.6093 91.9977C94.631 91.8908 94.6472 91.7834 94.6579 91.675C94.669 91.5667 94.6745 91.4584 94.675 91.3496C94.675 91.2408 94.6699 91.132 94.6597 91.0236C94.6495 90.9153 94.6338 90.8079 94.613 90.701C94.5921 90.594 94.5662 90.4885 94.5347 90.3843C94.5037 90.2801 94.4676 90.1778 94.4264 90.0769C94.3847 89.9764 94.3389 89.8778 94.288 89.7815C94.237 89.6852 94.1815 89.5917 94.1218 89.5009C94.0616 89.4102 93.9972 89.3227 93.9287 89.2385C93.8602 89.1537 93.7875 89.0727 93.7111 88.9954Z" fill="black"/>
</g>
</g>
<defs>
<clipPath id="clip0_5397_9443">
<rect width="96" height="96" fill="white"/>
</clipPath>
</defs>
</svg>
