<svg width="124" height="124" viewBox="0 0 124 124" fill="none" xmlns="http://www.w3.org/2000/svg">
<path d="M62.0181 81.5173L1.91968 95.5151V28.7102L62.0181 14.7118V81.5173Z" fill="#D4D4D4"/>
<path d="M62.0181 109.258L1.91968 95.2599V28.7103L62.0181 42.4528V109.258Z" fill="#E6E6E6"/>
<path d="M122.117 95.5151L62.0178 81.5173V14.7118L122.117 28.4543V95.5151Z" fill="#E6E6E6"/>
<path d="M122.117 95.2598L62.0178 109.258V42.4528L122.117 28.4543V95.2598Z" fill="#D4D4D4"/>
<path d="M121.911 28.4322L62.0031 42.5275L1.91968 28.7102L62.0181 14.7118L121.911 28.4322Z" fill="#E6E6E6"/>
<path d="M24.0615 33.6707L84.2185 19.8253L93.0796 21.822L34.6789 36.0979L24.0615 33.6707Z" fill="black"/>
<path d="M24.0615 33.6707V46.6429L24.9358 46.848V45.6443L25.8095 45.8942V47.0538L26.9319 47.3175V46.1442L27.8062 46.3942V47.5232L28.9298 47.7881V46.6429L29.8023 46.8929V47.9938L30.9265 48.2575V47.1411L31.8002 47.391V48.4632L32.9226 48.7269V47.641L33.7963 47.8909V48.9321L34.6705 49.1378V36.0411L24.0615 33.6707Z" fill="black"/>
<path d="M78.6667 98.3867C78.6667 107.583 71.2121 115.037 62.0161 115.037C52.8196 115.037 45.365 107.583 45.365 98.3867C45.365 89.1908 52.8196 81.7356 62.0161 81.7356C71.2121 81.7356 78.6667 89.1908 78.6667 98.3867Z" fill="black"/>
<path d="M63.8208 98.3867L69.6907 104.257L67.886 106.061L62.0161 100.191L56.1456 106.061L54.3408 104.257L60.2113 98.3867L54.3408 92.5162L56.1456 90.7114L62.0161 96.5819L67.886 90.7114L69.6907 92.5162L63.8208 98.3867Z" fill="white"/>
</svg>
