<svg width="76" height="77" viewBox="0 0 76 77" fill="none" xmlns="http://www.w3.org/2000/svg">
<path d="M25.293 55.8173L35.9292 72.9325C36.3316 73.5749 37.0316 73.9651 37.7841 73.9651C38.5365 73.9651 39.2366 73.5749 39.635 72.9325L50.2708 55.8173C46.727 53.2996 42.4307 51.8013 37.7841 51.8013C33.1374 51.8013 28.8412 53.2996 25.293 55.8173Z" fill="#D4D4D4"/>
<path d="M18.2839 44.536L22.9522 52.0451C27.1744 49.1016 32.2803 47.3686 37.7842 47.3686C43.2881 47.3686 48.394 49.1016 52.6162 52.0451L57.2845 44.536C51.7062 40.728 44.999 38.5029 37.7842 38.5029C30.5694 38.5029 23.8579 40.728 18.2839 44.536Z" fill="#D4D4D4"/>
<path d="M8.96895 29.5486C17.2514 24.0165 27.1436 20.7718 37.7842 20.7718C48.4247 20.7718 58.3169 24.0165 66.5994 29.5486L72.4489 20.1379C72.7593 19.6325 72.8645 19.0254 72.7245 18.4491C72.5933 17.8727 72.2345 17.3718 71.7313 17.0617C61.5415 10.7892 49.7984 7.47351 37.7842 7.47351C25.7655 7.47351 14.0268 10.7892 3.83265 17.0617C3.33383 17.3674 2.97501 17.8683 2.8394 18.4446C2.70379 19.0209 2.80458 19.6325 3.11942 20.1334L8.96895 29.5486Z" fill="#D4D4D4"/>
<path d="M11.2966 33.2942L15.9517 40.7859C22.2084 36.5523 29.712 34.07 37.7841 34.07C45.8562 34.07 53.3598 36.5479 59.6121 40.7859L64.2672 33.2942C56.6676 28.1921 47.5671 25.2047 37.7841 25.2047C28.0012 25.2047 18.9007 28.1921 11.2966 33.2942Z" fill="#D4D4D4"/>
<path d="M48.9452 40.409C45.4322 39.2033 41.6956 38.5029 37.7842 38.5029L49.142 50.0102C50.3541 50.6044 51.5178 51.278 52.6206 52.0451L55.6392 47.1911L48.9452 40.409Z" fill="#FAFAFA"/>
<path d="M37.7841 34.07C39.5866 34.07 41.3499 34.2341 43.0912 34.4737L34.0827 25.3511C31.357 25.5638 28.7012 26.0291 26.1199 26.6897L33.7151 34.3805C35.0628 34.2386 36.4016 34.07 37.7841 34.07Z" fill="#FAFAFA"/>
<path d="M22.5496 23.0681C25.0085 22.3102 27.5374 21.7339 30.1276 21.3436L19.1546 10.2262C16.8312 10.9221 14.5431 11.7379 12.3074 12.6907L22.5496 23.0681Z" fill="#FAFAFA"/>
<path d="M70.598 73.9651C70.038 73.9651 69.4779 73.7478 69.0495 73.3178L3.42142 6.82624C2.56818 5.96177 2.56818 4.55664 3.42142 3.69254C4.27467 2.82807 5.66155 2.82807 6.51442 3.69254L72.1425 70.1838C72.9957 71.0482 72.9957 72.4534 72.1425 73.3178C71.7181 73.7478 71.158 73.9651 70.598 73.9651Z" fill="black"/>
</svg>
