<svg width="24" height="24" viewBox="0 0 24 24" fill="none" xmlns="http://www.w3.org/2000/svg">
<path d="M10.17 4.99997C10.3194 4.99946 10.467 5.03243 10.602 5.09646C10.737 5.16049 10.8559 5.25395 10.95 5.36997L15.78 11.37C15.9271 11.5489 16.0075 11.7733 16.0075 12.005C16.0075 12.2366 15.9271 12.461 15.78 12.64L10.78 18.64C10.6103 18.8442 10.3664 18.9726 10.1019 18.997C9.83752 19.0214 9.57424 18.9397 9.37002 18.77C9.1658 18.6002 9.03738 18.3563 9.013 18.0919C8.98862 17.8275 9.07028 17.5642 9.24002 17.36L13.71 12L9.39002 6.63997C9.26774 6.49318 9.19006 6.31444 9.16618 6.12489C9.1423 5.93535 9.17322 5.74292 9.25527 5.57039C9.33733 5.39787 9.46709 5.25245 9.6292 5.15136C9.79131 5.05027 9.97899 4.99774 10.17 4.99997Z" fill="#404040"/>
</svg>
