<svg width="30" height="30" viewBox="0 0 30 30" fill="none" xmlns="http://www.w3.org/2000/svg">
<path d="M8.45003 27.5H21.55C25 27.5 26.375 25.3875 26.5375 22.8125L27.1875 12.4875C27.3625 9.7875 25.2125 7.5 22.5 7.5C21.7375 7.5 21.0375 7.0625 20.6875 6.3875L19.7875 4.575C19.2125 3.4375 17.7125 2.5 16.4375 2.5H13.575C12.2875 2.5 10.7875 3.4375 10.2125 4.575L9.31253 6.3875C8.96253 7.0625 8.26253 7.5 7.50003 7.5C4.78753 7.5 2.63753 9.7875 2.81253 12.4875L3.46253 22.8125C3.61253 25.3875 5.00003 27.5 8.45003 27.5Z" stroke="#292D32" stroke-width="1.5" stroke-linecap="round" stroke-linejoin="round"/>
<path opacity="0.4" d="M13.125 10H16.875" stroke="#292D32" stroke-width="1.5" stroke-linecap="round" stroke-linejoin="round"/>
<path opacity="0.4" d="M15 22.5C17.2375 22.5 19.0625 20.675 19.0625 18.4375C19.0625 16.2 17.2375 14.375 15 14.375C12.7625 14.375 10.9375 16.2 10.9375 18.4375C10.9375 20.675 12.7625 22.5 15 22.5Z" stroke="#292D32" stroke-width="1.5" stroke-linecap="round" stroke-linejoin="round"/>
</svg>
