<svg width="24" height="24" viewBox="0 0 24 24" fill="none" xmlns="http://www.w3.org/2000/svg">
<path d="M21.433 13.7279L21.4331 13.7287L21.9931 19.8187L21.9931 19.8188C22.044 20.3709 21.8623 20.9216 21.4863 21.3341C21.101 21.7557 20.5432 22 19.96 22H18.08C17.4255 22 17.1514 21.8187 17.016 21.6817C16.8506 21.5142 16.7666 21.2933 16.6626 20.9763L16.6626 20.9763L16.6615 20.9728L16.4615 20.3728L16.4615 20.3728L16.4596 20.3672C16.4561 20.3572 16.4527 20.347 16.4492 20.3368C16.3922 20.1701 16.3312 19.9915 16.2624 19.8418C16.1849 19.6733 16.067 19.4694 15.8588 19.3056C15.6472 19.1391 15.4142 19.0698 15.207 19.0368C15.01 19.0055 14.7876 19 14.56 19H9.43996C9.00841 19 8.50435 19.0231 8.11677 19.3424C7.91889 19.5055 7.80287 19.702 7.72515 19.8708C7.65489 20.0233 7.59624 20.1994 7.54437 20.3551L7.53845 20.3728L7.33845 20.9728L7.33844 20.9728L7.33729 20.9763C7.23336 21.2933 7.1493 21.5142 6.9839 21.6817C6.84855 21.8187 6.57443 22 5.91996 22H4.03996C3.44823 22 2.90004 21.7568 2.51379 21.3343C2.13764 20.9218 1.95594 20.371 2.0068 19.8188L2.00681 19.8187L2.56646 13.7324C2.56652 13.7318 2.56658 13.7312 2.56664 13.7305C2.64598 12.9135 2.78326 12.2676 3.15668 11.8112C3.49515 11.3975 4.15154 11 5.61996 11H18.38C19.8486 11 20.5079 11.3977 20.8475 11.8119C21.2214 12.2677 21.359 12.9138 21.433 13.7279Z" stroke="#010102" stroke-width="1.5"/>
<path d="M19.246 7.40406L19.3711 7.99996H19.3661L19.556 8.90409L19.7048 9.61254C19.3051 9.53791 18.8644 9.49996 18.38 9.49996H5.62C5.13559 9.49996 4.69487 9.53791 4.29522 9.61254L4.44399 8.90409L4.63386 7.99996H4.62889L4.754 7.40406L5.134 5.59406L5.134 5.59406L5.13462 5.59108C5.30705 4.75285 5.5492 4.08968 5.99981 3.62696C6.42562 3.18971 7.14049 2.82996 8.49 2.82996H11.25H12.75H15.51C16.8595 2.82996 17.5744 3.18971 18.0002 3.62696C18.4508 4.08968 18.6929 4.75285 18.8654 5.59108L18.866 5.59405L19.246 7.40406Z" stroke="#010102" stroke-width="1.5"/>
<path opacity="0.4" d="M9 15.75H6C5.59 15.75 5.25 15.41 5.25 15C5.25 14.59 5.59 14.25 6 14.25H9C9.41 14.25 9.75 14.59 9.75 15C9.75 15.41 9.41 15.75 9 15.75Z" fill="#010102"/>
<path opacity="0.4" d="M18 15.75H15C14.59 15.75 14.25 15.41 14.25 15C14.25 14.59 14.59 14.25 15 14.25H18C18.41 14.25 18.75 14.59 18.75 15C18.75 15.41 18.41 15.75 18 15.75Z" fill="#010102"/>
</svg>
