<svg width="13" height="15" viewBox="0 0 13 15" fill="none" xmlns="http://www.w3.org/2000/svg">
<path fill-rule="evenodd" clip-rule="evenodd" d="M1.3817 4.54094H11.7008C11.7837 4.53767 11.8667 4.54423 11.9481 4.56049C12.0825 4.58973 12.2059 4.6558 12.3041 4.75112C12.4182 4.85932 12.4899 5.00386 12.5068 5.15927C12.5099 5.21802 12.5074 5.27694 12.4994 5.33523L11.6205 14.3352V14.3511V14.3853C11.6147 14.4225 11.6064 14.4592 11.5958 14.4953V14.4953V14.5026C11.5491 14.6446 11.459 14.7688 11.3379 14.8579C11.2167 14.947 11.0706 14.9966 10.9196 15H2.14192C2.08974 14.9975 2.03796 14.9897 1.9874 14.9768C1.93771 14.9621 1.88967 14.9424 1.84401 14.9181V14.9181C1.73626 14.8569 1.64526 14.7705 1.57892 14.6666C1.51257 14.5627 1.47288 14.4443 1.46328 14.3218L0.598001 5.34134C0.588127 5.27419 0.58564 5.20618 0.590584 5.13849C0.607877 4.98524 0.679212 4.8429 0.792071 4.73646C0.894335 4.63819 1.02309 4.57115 1.16291 4.54338C1.23594 4.53076 1.31007 4.52544 1.38417 4.52749L1.3817 4.54094ZM0.699362 1.07536H4.58943V0.733198C4.58882 0.722208 4.58882 0.711193 4.58943 0.700204C4.59722 0.516028 4.6749 0.341509 4.80699 0.211405V0.211405C4.94564 0.0761025 5.13258 0.0001639 5.3274 0L7.72176 0H7.75885C7.94905 0.00941326 8.12831 0.0907968 8.25948 0.227291C8.39064 0.363785 8.46367 0.54493 8.46344 0.733198V0.733198V1.07536H12.419H12.4672C12.6072 1.08668 12.7383 1.14775 12.8363 1.24728C12.9342 1.34681 12.9924 1.47804 13 1.6167C13 1.6387 13 1.6558 13 1.6778V2.88269C13 2.96663 12.9663 3.04713 12.9062 3.10649C12.8462 3.16584 12.7648 3.19919 12.6798 3.19919H0.321109C0.236838 3.19919 0.155962 3.16635 0.0960266 3.10779C0.0360913 3.04922 0.00193033 2.96966 0.000954213 2.88635V1.65336C-0.000318071 1.64076 -0.000318071 1.62807 0.000954213 1.61548V1.61548C0.00942302 1.4868 0.0612665 1.36464 0.148205 1.2685C0.235143 1.17237 0.352161 1.10781 0.480569 1.08513C0.553086 1.07573 0.626283 1.07246 0.699362 1.07536V1.07536ZM5.90343 7.51528C5.91835 7.37176 5.98659 7.23881 6.09493 7.14215C6.20327 7.04549 6.34403 6.99198 6.48997 6.99198C6.63591 6.99198 6.77667 7.04549 6.88501 7.14215C6.99335 7.23881 7.06159 7.37176 7.07651 7.51528V12.0367C7.06159 12.1802 6.99335 12.3131 6.88501 12.4098C6.77667 12.5064 6.63591 12.56 6.48997 12.56C6.34403 12.56 6.20327 12.5064 6.09493 12.4098C5.98659 12.3131 5.91835 12.1802 5.90343 12.0367V7.51528ZM8.83675 7.49084C8.85296 7.34436 8.92695 7.21011 9.04266 7.11723C9.15837 7.02434 9.30646 6.98032 9.45481 6.99471C9.52768 6.99406 9.59996 7.00767 9.66749 7.03476C9.73502 7.06184 9.79646 7.10187 9.84828 7.15252C9.90009 7.20318 9.94126 7.26347 9.96941 7.32992C9.99756 7.39637 10.0121 7.46767 10.0123 7.53972L9.76507 12.0611C9.74917 12.2077 9.67527 12.3421 9.55948 12.4351C9.44369 12.528 9.29542 12.5719 9.14701 12.5572C9.07414 12.5579 9.00186 12.5443 8.93433 12.5172C8.8668 12.4901 8.80536 12.4501 8.75354 12.3994C8.70172 12.3488 8.66055 12.2885 8.63241 12.222C8.60426 12.1556 8.58968 12.0843 8.58952 12.0122L8.83675 7.49084ZM3.09126 7.53972C3.09125 7.46773 3.10568 7.39646 3.13369 7.33001C3.1617 7.26357 3.20276 7.20327 3.25447 7.1526C3.30619 7.10192 3.36755 7.06188 3.43501 7.03478C3.50247 7.00768 3.5747 6.99406 3.64751 6.99471C3.79585 6.98032 3.94395 7.02434 4.05966 7.11723C4.17537 7.21011 4.24936 7.34436 4.26557 7.49084L4.51279 12.0122C4.51263 12.0843 4.49806 12.1556 4.46991 12.222C4.44176 12.2885 4.40059 12.3488 4.34878 12.3994C4.29696 12.4501 4.23552 12.4901 4.16799 12.5172C4.10046 12.5443 4.02818 12.5579 3.9553 12.5572C3.8069 12.5719 3.65863 12.528 3.54284 12.4351C3.42705 12.3421 3.35314 12.2077 3.33724 12.0611L3.09002 7.53972H3.09126Z" fill="black"/>
</svg>
