<svg width="90" height="90" viewBox="0 0 90 90" fill="none" xmlns="http://www.w3.org/2000/svg">
<circle cx="42.8105" cy="42.3105" r="42.3105" fill="#F2EFFB"/>
<path d="M41.5 24V33" stroke="#6D7175" stroke-width="1.5" stroke-miterlimit="10" stroke-linecap="round" stroke-linejoin="round"/>
<path d="M65.5 24V33" stroke="#6D7175" stroke-width="1.5" stroke-miterlimit="10" stroke-linecap="round" stroke-linejoin="round"/>
<path opacity="0.4" d="M28 45.27H79" stroke="#6D7175" stroke-width="1.5" stroke-miterlimit="10" stroke-linecap="round" stroke-linejoin="round"/>
<path d="M75.1301 65.31L64.5102 75.93C64.0902 76.35 63.7001 77.13 63.6101 77.7L63.0401 81.75C62.8301 83.22 63.8501 84.24 65.3201 84.03L69.3701 83.46C69.9401 83.37 70.7501 82.98 71.1401 82.56L81.7602 71.94C83.5902 70.11 84.4602 67.98 81.7602 65.28C79.0902 62.61 76.9601 63.48 75.1301 65.31Z" fill="#7F60D2" stroke="#6D7175" stroke-width="1.5" stroke-miterlimit="10" stroke-linecap="round" stroke-linejoin="round"/>
<path d="M73.6001 66.84C74.5001 70.08 77.0201 72.6 80.2601 73.5" stroke="#6D7175" stroke-width="1.5" stroke-miterlimit="10" stroke-linecap="round" stroke-linejoin="round"/>
<path d="M53.5 84H41.5C31 84 26.5 78 26.5 69V43.5C26.5 34.5 31 28.5 41.5 28.5H65.5C76 28.5 80.5 34.5 80.5 43.5V54" stroke="#6D7175" stroke-width="1.5" stroke-miterlimit="10" stroke-linecap="round" stroke-linejoin="round"/>
<path opacity="0.4" d="M53.4865 59.1001H53.5134" stroke="#6D7175" stroke-width="2" stroke-linecap="round" stroke-linejoin="round"/>
<path opacity="0.4" d="M42.3829 59.1001H42.4099" stroke="#6D7175" stroke-width="2" stroke-linecap="round" stroke-linejoin="round"/>
<path opacity="0.4" d="M42.3833 68.1001H42.4102" stroke="#6D7175" stroke-width="2" stroke-linecap="round" stroke-linejoin="round"/>
</svg>
