<svg width="17" height="16" viewBox="0 0 17 16" fill="none" xmlns="http://www.w3.org/2000/svg">
<path d="M6.81334 10.1866C6.68668 10.1866 6.56001 10.1399 6.46001 10.0399C5.91334 9.49328 5.61334 8.76661 5.61334 7.99995C5.61334 6.40661 6.90668 5.11328 8.50001 5.11328C9.26668 5.11328 9.99334 5.41328 10.54 5.95995C10.6333 6.05328 10.6867 6.17995 10.6867 6.31328C10.6867 6.44661 10.6333 6.57328 10.54 6.66661L7.16668 10.0399C7.06668 10.1399 6.94001 10.1866 6.81334 10.1866ZM8.50001 6.11328C7.46001 6.11328 6.61334 6.95995 6.61334 7.99995C6.61334 8.33328 6.70001 8.65328 6.86001 8.93328L9.43334 6.35995C9.15334 6.19995 8.83334 6.11328 8.50001 6.11328Z" fill="#404040"/>
<path d="M4.23332 12.3399C4.11999 12.3399 3.99999 12.2999 3.90665 12.2199C3.19332 11.6132 2.55332 10.8666 2.00665 9.99991C1.29999 8.89991 1.29999 7.10657 2.00665 5.99991C3.63332 3.45324 5.99999 1.98657 8.49999 1.98657C9.96665 1.98657 11.4133 2.49324 12.68 3.44657C12.9 3.61324 12.9467 3.92657 12.78 4.14657C12.6133 4.36657 12.3 4.41324 12.08 4.24657C10.9867 3.41991 9.74665 2.98657 8.49999 2.98657C6.34665 2.98657 4.28665 4.27991 2.84665 6.53991C2.34665 7.31991 2.34665 8.67991 2.84665 9.45991C3.34665 10.2399 3.91999 10.9132 4.55332 11.4599C4.75999 11.6399 4.78665 11.9532 4.60665 12.1666C4.51332 12.2799 4.37332 12.3399 4.23332 12.3399Z" fill="#404040"/>
<path d="M8.49999 14.0134C7.61332 14.0134 6.74666 13.8334 5.91332 13.4801C5.65999 13.3734 5.53999 13.0801 5.64666 12.8267C5.75332 12.5734 6.04666 12.4534 6.29999 12.5601C7.00666 12.8601 7.74666 13.0134 8.49332 13.0134C10.6467 13.0134 12.7067 11.7201 14.1467 9.46008C14.6467 8.68008 14.6467 7.32008 14.1467 6.54008C13.94 6.21341 13.7133 5.90008 13.4733 5.60675C13.3 5.39341 13.3333 5.08008 13.5467 4.90008C13.76 4.72675 14.0733 4.75341 14.2533 4.97341C14.5133 5.29341 14.7667 5.64008 14.9933 6.00008C15.7 7.10008 15.7 8.89341 14.9933 10.0001C13.3667 12.5467 11 14.0134 8.49999 14.0134Z" fill="#404040"/>
<path d="M8.96 10.8467C8.72667 10.8467 8.51334 10.68 8.46667 10.44C8.41334 10.1667 8.59334 9.90665 8.86667 9.85999C9.6 9.72665 10.2133 9.11332 10.3467 8.37999C10.4 8.10665 10.66 7.93332 10.9333 7.97999C11.2067 8.03332 11.3867 8.29332 11.3333 8.56665C11.12 9.71999 10.2 10.6333 9.05334 10.8467C9.02 10.84 8.99334 10.8467 8.96 10.8467Z" fill="#404040"/>
<path d="M1.83332 15.1666C1.70666 15.1666 1.57999 15.1199 1.47999 15.0199C1.28666 14.8266 1.28666 14.5066 1.47999 14.3132L6.45999 9.33323C6.65333 9.1399 6.97333 9.1399 7.16666 9.33323C7.35999 9.52657 7.35999 9.84657 7.16666 10.0399L2.18666 15.0199C2.08666 15.1199 1.95999 15.1666 1.83332 15.1666Z" fill="#404040"/>
<path d="M10.1867 6.81329C10.06 6.81329 9.93332 6.76663 9.83332 6.66663C9.63999 6.47329 9.63999 6.15329 9.83332 5.95996L14.8133 0.979961C15.0067 0.786628 15.3267 0.786628 15.52 0.979961C15.7133 1.17329 15.7133 1.49329 15.52 1.68663L10.54 6.66663C10.44 6.76663 10.3133 6.81329 10.1867 6.81329Z" fill="#404040"/>
</svg>
