<svg width="35" height="35" viewBox="0 0 35 35" fill="none" xmlns="http://www.w3.org/2000/svg">
<path d="M4.32573 13.8086C4.14128 13.8103 3.95968 13.7631 3.79936 13.6719C3.68177 13.6058 3.57855 13.5169 3.49572 13.4104C3.4129 13.304 3.35214 13.182 3.317 13.0518C3.28187 12.9216 3.27306 12.7856 3.29109 12.6519C3.30912 12.5183 3.35363 12.3895 3.42202 12.2732C4.73999 10.0734 8.74995 4.93896 17.4999 4.93896C21.2918 4.93896 24.6175 5.93496 27.3799 7.89824C29.6536 9.50947 30.9278 11.3333 31.5348 12.2117C31.6118 12.3224 31.6659 12.4474 31.6938 12.5794C31.7218 12.7113 31.723 12.8475 31.6975 12.9799C31.6721 13.1124 31.6204 13.2384 31.5454 13.3505C31.4705 13.4626 31.3739 13.5587 31.2614 13.6329C31.0313 13.785 30.751 13.8415 30.48 13.7905C30.2089 13.7394 29.9684 13.5848 29.8094 13.3595C28.7109 11.7797 25.3613 6.97266 17.4999 6.97266C9.82661 6.97266 6.35737 11.3962 5.22739 13.2932C5.1366 13.4516 5.00516 13.5829 4.84664 13.6735C4.68813 13.7641 4.5083 13.8107 4.32573 13.8086Z" fill="black"/>
<path d="M21.9085 33.9063C21.8213 33.9073 21.7342 33.8975 21.6494 33.8769C15.3023 32.3046 12.9322 25.9595 12.8359 25.6957L12.8208 25.6375C12.7689 25.4543 11.4953 21.1033 13.4504 18.5548C14.3466 17.3927 15.7097 16.7966 17.5096 16.7966C19.183 16.7966 20.3903 17.3168 21.2201 18.3935C21.9037 19.2726 22.1772 20.3568 22.4417 21.4013C22.9975 23.5765 23.3988 24.7188 25.7086 24.8364C26.7231 24.8876 27.3896 24.2943 27.7676 23.7891C28.7896 22.4117 28.9673 20.1661 28.1969 18.1836C27.2071 15.625 23.6941 10.8008 17.5 10.8008C14.8559 10.8008 12.4264 11.6505 10.4781 13.2474C8.86555 14.5702 7.58791 16.4377 6.97268 18.3573C5.83176 21.9311 7.32815 27.5489 7.3425 27.6001C7.37744 27.7309 7.38585 27.8673 7.36723 28.0014C7.34861 28.1354 7.30333 28.2644 7.23408 28.3806C7.16483 28.4969 7.07299 28.5981 6.96399 28.6784C6.855 28.7586 6.73104 28.8162 6.59944 28.8477C6.33356 28.9184 6.05057 28.8822 5.81111 28.7467C5.57165 28.6113 5.39477 28.3874 5.31838 28.1231C5.25002 27.8667 3.65178 21.875 4.96975 17.7448C6.40529 13.2693 10.8357 8.75757 17.5021 8.75757C20.583 8.75757 23.4938 9.80483 25.9233 11.7825C27.8045 13.3206 29.3412 15.3864 30.1451 17.4515C31.1671 20.0881 30.893 23.0474 29.4486 24.9806C28.4861 26.2699 27.1154 26.9439 25.5972 26.8708C21.6419 26.6725 20.931 23.9115 20.4128 21.8976C19.8796 19.8318 19.5385 18.8358 17.5021 18.8358C16.3837 18.8358 15.5983 19.1434 15.1095 19.7805C14.443 20.6521 14.391 22.0145 14.4649 23.003C14.5133 23.6917 14.6301 24.3738 14.8135 25.0394C14.9762 25.4496 17.0947 30.6449 22.1683 31.902C22.2994 31.9331 22.4231 31.9899 22.5321 32.0691C22.6411 32.1484 22.7332 32.2485 22.8032 32.3637C22.8731 32.4789 22.9195 32.6069 22.9396 32.7401C22.9597 32.8734 22.9531 33.0093 22.9202 33.14C22.8583 33.3606 22.7259 33.5549 22.5433 33.6933C22.3606 33.8317 22.1377 33.9065 21.9085 33.9063Z" fill="black"/>
<path d="M13.7614 33.4373C13.6191 33.4376 13.4782 33.4092 13.3472 33.3539C13.2161 33.2986 13.0975 33.2174 12.9985 33.1153C10.4582 30.4493 9.02133 27.4681 8.48061 23.7405V23.7207C8.17709 21.2529 8.62143 17.759 10.7987 15.3569C12.4058 13.5843 14.6651 12.6833 17.502 12.6833C20.8571 12.6833 23.4937 14.2433 25.1377 17.1875C26.3306 19.3265 26.5671 21.458 26.5733 21.5455C26.5858 21.6804 26.5716 21.8164 26.5314 21.9458C26.4913 22.0752 26.426 22.1954 26.3393 22.2996C26.2526 22.4037 26.1463 22.4897 26.0263 22.5527C25.9063 22.6157 25.7751 22.6544 25.6402 22.6666C25.3679 22.6961 25.0949 22.6174 24.8802 22.4474C24.6655 22.2774 24.5262 22.0298 24.4924 21.7581C24.3124 20.4792 23.8985 19.2443 23.2715 18.1152C21.9973 15.8668 20.0586 14.7239 17.4945 14.7239C15.2796 14.7239 13.5467 15.3904 12.3545 16.7063C10.636 18.6033 10.3038 21.5256 10.5396 23.4588C11.0133 26.7551 12.28 29.3774 14.5167 31.7208C14.6101 31.8179 14.683 31.9328 14.731 32.0586C14.7791 32.1844 14.8014 32.3187 14.7965 32.4533C14.7917 32.5879 14.7598 32.7202 14.7028 32.8422C14.6458 32.9643 14.5649 33.0737 14.4648 33.1638C14.272 33.3385 14.0215 33.4359 13.7614 33.4373Z" fill="black"/>
<path d="M25.4638 30.5006C23.2422 30.5006 21.3534 29.8854 19.842 28.6624C16.8054 26.2158 16.465 22.2312 16.45 22.063C16.4286 21.787 16.5177 21.5137 16.6978 21.3034C16.8778 21.0931 17.1341 20.9629 17.4101 20.9416C17.6861 20.9202 17.9593 21.0093 18.1696 21.1894C18.38 21.3694 18.5101 21.6256 18.5315 21.9017C18.539 21.9605 18.8426 25.2198 21.1832 27.097C22.5681 28.203 24.4193 28.6419 26.7005 28.3855C26.9731 28.3525 27.2477 28.4287 27.4643 28.5975C27.681 28.7663 27.8219 29.0141 27.8564 29.2865C27.8713 29.4211 27.8593 29.5573 27.8211 29.6872C27.7828 29.8171 27.719 29.9381 27.6335 30.0431C27.548 30.1481 27.4424 30.235 27.3229 30.2988C27.2035 30.3625 27.0725 30.4018 26.9377 30.4145C26.4485 30.4715 25.9564 30.5003 25.4638 30.5006ZM27.2193 3.33525C26.3525 2.77129 23.2791 1.09375 17.5 1.09375C11.4338 1.09375 8.35281 2.94697 7.67126 3.41797C7.62625 3.4456 7.58412 3.47766 7.54548 3.51367C7.54141 3.51762 7.5361 3.52003 7.53044 3.52051C7.42161 3.61553 7.33428 3.73266 7.27428 3.86409C7.21429 3.99553 7.18299 4.13824 7.1825 4.28272C7.18436 4.41815 7.21294 4.55188 7.26659 4.67625C7.32023 4.80062 7.39789 4.91318 7.49511 5.00748C7.59234 5.10178 7.70721 5.17597 7.83316 5.2258C7.95911 5.27563 8.09365 5.30011 8.22908 5.29785C8.44614 5.29771 8.65796 5.23115 8.83611 5.10713C8.8655 5.08525 11.5172 3.13701 17.502 3.13701C23.4869 3.13701 26.1529 5.07842 26.1816 5.09277C26.3636 5.22774 26.5846 5.29973 26.8112 5.29785C26.9467 5.29993 27.0814 5.27522 27.2073 5.22514C27.3333 5.17506 27.4481 5.1006 27.5452 5.00603C27.6424 4.91145 27.7198 4.79863 27.7732 4.67404C27.8266 4.54944 27.8549 4.41553 27.8564 4.27998C27.8565 4.07694 27.7959 3.87852 27.6823 3.71019C27.5688 3.54186 27.4076 3.41129 27.2193 3.33525Z" fill="black"/>
</svg>
