<svg width="24" height="24" viewBox="0 0 24 24" fill="none" xmlns="http://www.w3.org/2000/svg">
<path d="M0 5.24207C0 3.68817 0.373546 2.36147 1.15745 1.4079L2.52076 3.06628C1.00339 4.90542 2.32853 10.6235 6.64885 15.8839C10.9692 21.1443 15.6726 22.7545 17.1886 20.9121L18.5519 22.5705C15.9943 25.6816 10.1689 23.4743 5.29236 17.5406C1.90999 13.4245 0 8.75451 0 5.24207Z" fill="#009A46"/>
<path d="M8.59693 24C7.31951 24 6.22887 23.5456 5.4436 22.592L6.80691 20.9336C8.32155 22.7761 13.0222 21.1642 17.3466 15.9054C21.6711 10.6467 22.9935 4.92863 21.4788 3.08617L22.8421 1.4278C25.4011 4.53891 23.5851 11.6252 18.7072 17.5572C15.3235 21.6782 11.4844 24 8.59693 24Z" fill="#FF5805"/>
<path d="M19.1586 15.1841C18.3311 12.2852 16.6406 9.18737 14.3979 6.461C9.52136 0.527323 3.69595 -1.68164 1.13838 1.43114C0.957064 1.65336 1.11384 2.20228 1.49012 2.66C1.86639 3.11771 2.31764 3.30676 2.49896 3.0862C4.01496 1.24374 8.71565 2.85569 13.0387 8.11606C15.0837 10.6036 16.6078 13.3814 17.3427 15.9519C17.9861 18.2056 17.9234 20.0232 17.1736 20.9353C16.9909 21.1559 17.1491 21.7065 17.524 22.1625C17.8989 22.6186 18.3515 22.8109 18.5342 22.5887C19.8443 20.995 20.0665 18.3615 19.1586 15.1841Z" fill="#F5AFCB"/>
<path d="M22.8396 1.43114C21.5267 -0.165878 19.3645 -0.436194 16.7497 0.669944C14.368 1.67492 11.82 3.73297 9.57869 6.45934C4.70214 12.3914 2.88622 19.4776 5.44378 22.5904C5.62646 22.8109 6.07772 22.6202 6.45399 22.1642C6.83026 21.7081 6.98704 21.1575 6.80436 20.9353C5.28564 19.0929 6.61486 13.3748 10.9393 8.1144C12.9842 5.62683 15.2678 3.77277 17.3809 2.8789C19.2336 2.09781 20.7278 2.17243 21.479 3.08454C21.6603 3.30511 22.1129 3.11439 22.4878 2.65668C22.8628 2.19897 23.0209 1.6517 22.8396 1.43114Z" fill="#FF9B00"/>
</svg>
