<svg width="17" height="17" viewBox="0 0 17 17" fill="none" xmlns="http://www.w3.org/2000/svg">
<path opacity="0.4" d="M10.1866 6.81328L6.81328 10.1866C6.37995 9.75328 6.11328 9.15995 6.11328 8.49995C6.11328 7.17995 7.17995 6.11328 8.49995 6.11328C9.15995 6.11328 9.75328 6.37995 10.1866 6.81328Z" stroke="white" stroke-width="1.5" stroke-linecap="round" stroke-linejoin="round"/>
<path d="M12.3799 4.34682C11.2132 3.46682 9.8799 2.98682 8.4999 2.98682C6.14656 2.98682 3.95323 4.37348 2.42656 6.77348C1.82656 7.71348 1.82656 9.29348 2.42656 10.2335C2.95323 11.0602 3.56656 11.7735 4.23323 12.3468" stroke="white" stroke-width="1.5" stroke-linecap="round" stroke-linejoin="round"/>
<path d="M6.11328 13.52C6.87328 13.84 7.67995 14.0133 8.49995 14.0133C10.8533 14.0133 13.0466 12.6266 14.5733 10.2266C15.1733 9.28662 15.1733 7.70662 14.5733 6.76662C14.3533 6.41995 14.1133 6.09329 13.8666 5.78662" stroke="white" stroke-width="1.5" stroke-linecap="round" stroke-linejoin="round"/>
<path opacity="0.4" d="M10.84 8.9668C10.6666 9.9068 9.89996 10.6735 8.95996 10.8468" stroke="white" stroke-width="1.5" stroke-linecap="round" stroke-linejoin="round"/>
<path d="M6.81325 10.1865L1.83325 15.1665" stroke="white" stroke-width="1.5" stroke-linecap="round" stroke-linejoin="round"/>
<path d="M15.1668 1.8335L10.1868 6.8135" stroke="white" stroke-width="1.5" stroke-linecap="round" stroke-linejoin="round"/>
</svg>
