<svg width="27" height="27" viewBox="0 0 27 27" fill="none" xmlns="http://www.w3.org/2000/svg">
<path d="M12.0937 2.75636C12.8812 2.09261 14.1525 2.09261 14.9175 2.75636L16.695 4.27511C17.0325 4.55636 17.6737 4.79261 18.1237 4.79261H20.0362C21.2287 4.79261 22.2075 5.77136 22.2075 6.96386V8.87636C22.2075 9.32636 22.4437 9.95636 22.725 10.2939L24.2437 12.0714C24.9075 12.8589 24.9075 14.1301 24.2437 14.8951L22.725 16.6726C22.4437 17.0101 22.2075 17.6401 22.2075 18.0901V20.0026C22.2075 21.1951 21.2287 22.1739 20.0362 22.1739H18.1237C17.6737 22.1739 17.0437 22.4101 16.7062 22.6914L14.9287 24.2101C14.1412 24.8739 12.87 24.8739 12.105 24.2101L10.3275 22.6914C9.98999 22.4101 9.34874 22.1739 8.90999 22.1739H6.94124C5.74874 22.1739 4.76999 21.1951 4.76999 20.0026V18.0789C4.76999 17.6401 4.54499 16.9989 4.26374 16.6726L2.74499 14.8839C2.09249 14.1076 2.09249 12.8476 2.74499 12.0714L4.26374 10.2826C4.54499 9.94511 4.76999 9.31511 4.76999 8.87636V6.97511C4.76999 5.78261 5.74874 4.80386 6.94124 4.80386H8.88749C9.33749 4.80386 9.96749 4.56761 10.305 4.28636L12.0937 2.75636Z" stroke="#010102" stroke-width="1.5" stroke-linecap="round" stroke-linejoin="round"/>
<path opacity="0.3" d="M13.5 9.146V14.5797" stroke="#010102" stroke-width="1.5" stroke-linecap="round" stroke-linejoin="round"/>
<path d="M13.4934 18H13.5035" stroke="#010102" stroke-width="2" stroke-linecap="round" stroke-linejoin="round"/>
</svg>
