<svg width="24" height="24" viewBox="0 0 24 24" fill="none" xmlns="http://www.w3.org/2000/svg">
<path d="M15.245 17.831H8.755V6.16803H15.245V17.831Z" fill="#FF5F00"/>
<path d="M9.167 12C9.167 9.63401 10.275 7.52701 12 6.16901C10.694 5.13901 9.079 4.58101 7.417 4.58301C3.32 4.58301 0 7.90401 0 12C0 16.096 3.32 19.417 7.416 19.417C9.079 19.419 10.694 18.861 11.999 17.831C10.275 16.473 9.167 14.366 9.167 12Z" fill="#EB001B"/>
<path d="M24 12C24 16.096 20.68 19.417 16.584 19.417C14.921 19.419 13.306 18.861 12 17.831C13.725 16.473 14.833 14.366 14.833 12C14.833 9.63401 13.725 7.52701 12 6.16901C13.306 5.13901 14.921 4.58101 16.584 4.58301C20.68 4.58301 24 7.90401 24 12Z" fill="#F79E1B"/>
</svg>
