<svg width="27" height="27" viewBox="0 0 27 27" fill="none" xmlns="http://www.w3.org/2000/svg">
<path d="M19.125 20.7337H14.625L9.61874 24.0637C8.87624 24.5587 7.875 24.03 7.875 23.13V20.7337C4.5 20.7337 2.25 18.4837 2.25 15.1087V8.35864C2.25 4.98364 4.5 2.73364 7.875 2.73364H19.125C22.5 2.73364 24.75 4.98364 24.75 8.35864V15.1087C24.75 18.4837 22.5 20.7337 19.125 20.7337Z" stroke="#010102" stroke-width="1.5" stroke-miterlimit="10" stroke-linecap="round" stroke-linejoin="round"/>
<path opacity="0.3" d="M13.5 12.78V12.5438C13.5 11.7788 13.9726 11.3738 14.4451 11.0476C14.9063 10.7326 15.3675 10.3276 15.3675 9.58507C15.3675 8.55007 14.535 7.71753 13.5 7.71753C12.465 7.71753 11.6326 8.55007 11.6326 9.58507" stroke="#010102" stroke-width="1.5" stroke-linecap="round" stroke-linejoin="round"/>
<path d="M13.4949 15.4688H13.5051" stroke="#010102" stroke-width="1.5" stroke-linecap="round" stroke-linejoin="round"/>
</svg>
