<svg width="90" height="89" viewBox="0 0 90 89" fill="none" xmlns="http://www.w3.org/2000/svg">
<circle cx="42.8251" cy="42.9664" r="42.3105" fill="#F2EFFB"/>
<path d="M49.3987 32.9844L89.0838 44.1838L84.9449 88.2513L37.4689 76.3214L49.3987 32.9844Z" fill="#7F60D2"/>
<path d="M88.8403 43.9403L47.2075 33.2278C45.1786 36.1494 39.9522 43.6968 35.2776 50.5139C30.603 57.331 22.455 65.69 18.9653 69.0174L67.6587 83.3819C68.5514 82.895 72.3332 79.3404 80.3189 69.0174C88.3046 58.6944 89.3272 47.9981 88.8403 43.9403Z" fill="#F3F3F3" stroke="#CCCCCC" stroke-width="0.486933"/>
<circle cx="50.8595" cy="44.6708" r="1.94773" fill="#C4C4C4"/>
<circle cx="45.0164" cy="54.8963" r="1.94773" fill="#C4C4C4"/>
<circle cx="39.1731" cy="64.148" r="1.94773" fill="#C4C4C4"/>
<rect x="49.9927" y="56.5771" width="23.3728" height="0.973867" rx="0.486933" transform="rotate(15.5 49.9927 56.5771)" fill="#C4C4C4"/>
<rect x="44.8951" y="66.4449" width="21.1557" height="0.973867" rx="0.486933" transform="rotate(15.5 44.8951 66.4449)" fill="#C4C4C4"/>
<rect x="56.4089" y="46.1537" width="23.3728" height="0.973867" rx="0.486933" transform="rotate(14.5 56.4089 46.1537)" fill="#C4C4C4"/>
</svg>
