<svg width="198" height="166" viewBox="0 0 198 166" fill="none" xmlns="http://www.w3.org/2000/svg">
<circle cx="66" cy="116" r="50" fill="#F2EFFB"/>
<g clip-path="url(#clip0_1776_2144)">
<path d="M123.675 91.5C121.104 91.482 118.655 91.9133 116.361 92.7398L110.685 82.875H124.899C127.194 82.875 129.039 80.9523 129.039 78.5625V72.8125C129.039 70.4227 127.194 68.5 124.899 68.5H117.085C115.912 68.5 114.791 69.0211 114.015 69.9195L107.546 77.4125L103.613 70.5844C102.854 69.2906 101.508 68.5 100.059 68.5L86.2594 68.5C84.7414 68.5 83.4994 69.7937 83.4994 71.375V74.25C83.4994 75.8313 84.7414 77.125 86.2594 77.125H97.7134L101.025 82.875H74.5122C71.4589 78.7242 66.7669 75.6875 57.2794 75.6875H47.7057C45.3769 75.6875 43.4277 77.6641 43.4794 80.0898C43.5139 82.4258 45.3597 84.3125 47.6194 84.3125H57.2794C61.5057 84.3125 63.9552 86.2711 65.5249 88.7688L63.5757 92.4523C61.3332 91.7516 58.9354 91.4281 56.4514 91.518C44.8422 91.9492 35.4754 101.85 35.1994 113.961C34.9234 126.916 44.9112 137.5 57.2794 137.5C67.5604 137.5 76.2027 130.169 78.6694 120.25H93.1939C95.5572 120.25 97.4374 118.202 97.3339 115.74C96.9717 107.277 100.353 98.9031 107.028 93.2789L109.185 97.0164C104.424 101.275 101.405 107.6 101.457 114.662C101.543 127.168 111.324 137.392 123.33 137.5C135.681 137.626 145.72 127.168 145.617 114.302C145.496 101.796 135.681 91.5898 123.675 91.5ZM57.2794 128.875C49.6722 128.875 43.4794 122.424 43.4794 114.5C43.4794 106.576 49.6722 100.125 57.2794 100.125C58.0039 100.125 58.7284 100.179 59.4357 100.305L52.2769 113.853C50.7589 116.728 52.7599 120.25 55.8994 120.25H69.9237C67.7847 125.317 62.9202 128.875 57.2794 128.875ZM137.302 115.291C136.923 122.586 131.265 128.48 124.278 128.857C116.326 129.306 109.719 122.694 109.719 114.5C109.719 110.655 111.168 107.169 113.532 104.599L122.053 119.405C122.829 120.771 124.537 121.202 125.848 120.394L128.211 118.92C129.522 118.112 129.936 116.333 129.16 114.967L120.777 100.43C121.674 100.233 122.588 100.143 123.519 100.143C131.385 100.125 137.716 107.007 137.302 115.291Z" fill="#3A3A3A"/>
</g>
<defs>
<clipPath id="clip0_1776_2144">
<rect width="110.4" height="92" fill="white" transform="translate(35.2 57)"/>
</clipPath>
</defs>
</svg>
