<svg width="114" height="107" viewBox="0 0 114 107" fill="none" xmlns="http://www.w3.org/2000/svg">
<circle cx="66.3759" cy="47.4177" r="47.1198" fill="#F2EFFB"/>
<path d="M61.8516 103.202L1.59028 68.4103C1.19719 68.1834 1.06251 67.6807 1.28946 67.2876L5.26176 60.4074C5.48871 60.0143 5.99135 59.8796 6.38444 60.1066L7.09619 60.5175C9.84781 62.1062 13.3663 61.1634 14.9549 58.4118L26.7349 38.0083C33.1651 26.8709 47.4065 23.0549 58.544 29.4851L58.681 29.2478L58.9183 29.3848L60.2195 27.1309C61.9217 24.1828 65.6914 23.1727 68.6396 24.8748C71.5878 26.5769 72.5979 30.3467 70.8958 33.2949L69.5945 35.5487L69.8317 35.6857L69.6948 35.923C79.784 41.748 83.2408 54.6491 77.4158 64.7383L64.5401 87.0398C62.9514 89.7914 63.8942 93.3099 66.6458 94.8985C67.0389 95.1255 67.1736 95.6281 66.9466 96.0212L62.9743 102.901C62.7474 103.295 62.2447 103.429 61.8516 103.202Z" fill="#DDDDDD" stroke="#7F60D2" stroke-width="0.547904"/>
<mask id="path-3-inside-1_1301_2590" fill="white">
<path d="M35.7444 90.3436C34.5819 92.3571 34.2668 94.7499 34.8686 96.9957C35.4704 99.2415 36.9396 101.156 38.9531 102.319C40.9666 103.481 43.3595 103.796 45.6053 103.195C47.8511 102.593 49.7658 101.124 50.9283 99.11L43.3364 94.7268L35.7444 90.3436Z"/>
</mask>
<path d="M35.7444 90.3436C34.5819 92.3571 34.2668 94.7499 34.8686 96.9957C35.4704 99.2415 36.9396 101.156 38.9531 102.319C40.9666 103.481 43.3595 103.796 45.6053 103.195C47.8511 102.593 49.7658 101.124 50.9283 99.11L43.3364 94.7268L35.7444 90.3436Z" fill="#CCCCCC" stroke="black" stroke-width="1.09581" mask="url(#path-3-inside-1_1301_2590)"/>
<circle cx="33.7756" cy="13.1737" r="3.56138" fill="#CCCCCC"/>
<circle cx="91.3055" cy="57.5539" r="3.28743" fill="#CCCCCC" stroke="black" stroke-width="0.547904"/>
<circle cx="10.2157" cy="48.7875" r="3.28743" stroke="black" stroke-width="0.547904"/>
</svg>
