<svg width="16" height="16" viewBox="0 0 16 16" fill="none" xmlns="http://www.w3.org/2000/svg">
<path d="M13.9804 0.32666H0.810453C0.364694 0.32666 0 0.692042 0 1.13864V2.6002C0 3.0468 0.364694 3.41218 0.810453 3.41218H13.9399C14.3856 3.41218 14.7503 3.0468 14.7503 2.6002V1.13864C14.7909 0.692042 14.4262 0.32666 13.9804 0.32666ZM13.9804 8.48705H0.810453C0.364694 8.48705 0 8.85243 0 9.29903V10.7606C0 11.2072 0.364694 11.5726 0.810453 11.5726H13.9399C14.3856 11.5726 14.7503 11.2072 14.7503 10.7606V9.29903C14.7909 8.85243 14.4262 8.48705 13.9804 8.48705V8.48705ZM8.22616 12.5875H0.810453C0.364694 12.5875 0 12.9529 0 13.3995V14.8611C0 15.3077 0.364694 15.6731 0.810453 15.6731H8.22616C8.67192 15.6731 9.03661 15.3077 9.03661 14.8611V13.3995C9.03661 12.9529 8.67192 12.5875 8.22616 12.5875V12.5875ZM14.7909 4.42716H0.810453C0.364694 4.42716 0 4.79254 0 5.23912V6.7007C0 7.14727 0.364694 7.51268 0.810453 7.51268H14.7909C15.2366 7.51268 15.6013 7.14727 15.6013 6.7007V5.23912C15.6013 4.79254 15.2366 4.42716 14.7909 4.42716V4.42716Z" fill="#0BA4DB"/>
</svg>
