<svg width="16" height="16" viewBox="0 0 16 16" fill="none" xmlns="http://www.w3.org/2000/svg">
<path d="M13.9804 0.326782H0.810453C0.364694 0.326782 0 0.692164 0 1.13877V2.60032C0 3.04692 0.364694 3.4123 0.810453 3.4123H13.9399C14.3856 3.4123 14.7503 3.04692 14.7503 2.60032V1.13877C14.7909 0.692164 14.4262 0.326782 13.9804 0.326782ZM13.9804 8.48717H0.810453C0.364694 8.48717 0 8.85255 0 9.29915V10.7607C0 11.2073 0.364694 11.5727 0.810453 11.5727H13.9399C14.3856 11.5727 14.7503 11.2073 14.7503 10.7607V9.29915C14.7909 8.85255 14.4262 8.48717 13.9804 8.48717ZM8.22616 12.5877H0.810453C0.364694 12.5877 0 12.9531 0 13.3997V14.8612C0 15.3078 0.364694 15.6732 0.810453 15.6732H8.22616C8.67192 15.6732 9.03661 15.3078 9.03661 14.8612V13.3997C9.03661 12.9531 8.67192 12.5877 8.22616 12.5877ZM14.7909 4.42728H0.810453C0.364694 4.42728 0 4.79266 0 5.23924V6.70082C0 7.14739 0.364694 7.5128 0.810453 7.5128H14.7909C15.2366 7.5128 15.6013 7.14739 15.6013 6.70082V5.23924C15.6013 4.79266 15.2366 4.42728 14.7909 4.42728Z" fill="#0BA4DB"/>
</svg>
