<svg width="358" height="267" viewBox="0 0 358 267" fill="none" xmlns="http://www.w3.org/2000/svg">
<path d="M178.513 266.47C255.013 266.47 317.028 262.849 317.028 258.383C317.028 253.917 255.013 250.296 178.513 250.296C102.014 250.296 39.9991 253.917 39.9991 258.383C39.9991 262.849 102.014 266.47 178.513 266.47Z" fill="#F5F5F5"/>
<path d="M357.198 233.894H0V234.072H357.198V233.894Z" fill="#E0E0E0"/>
<path d="M78.1693 242.459H36.8986V242.638H78.1693V242.459Z" fill="#E0E0E0"/>
<path d="M168.355 238.58H149.552V238.759H168.355V238.58Z" fill="#E0E0E0"/>
<path d="M211.862 238.487H175.227V238.666H211.862V238.487Z" fill="#E0E0E0"/>
<path d="M281.594 240.63H272.671V240.809H281.594V240.63Z" fill="#E0E0E0"/>
<path d="M241.859 240.63H206.268V240.809H241.859V240.63Z" fill="#E0E0E0"/>
<path d="M92.1572 242.459H85.0847V242.638H92.1572V242.459Z" fill="#E0E0E0"/>
<path d="M318.321 240.63H287.423V240.809H318.321V240.63Z" fill="#E0E0E0"/>
<path d="M169.312 0H31.3477C30.4793 0.000800611 29.6337 0.278232 28.9337 0.792054C28.2336 1.30588 27.7154 2.02937 27.4543 2.85759C27.3366 3.22966 27.2764 3.61752 27.2757 4.00776V197.952C27.2757 199.033 27.7045 200.069 28.4679 200.834C29.2314 201.599 30.2671 202.03 31.3477 202.031H169.312C170.394 202.031 171.431 201.602 172.196 200.837C172.961 200.072 173.391 199.034 173.391 197.952V4.07921C173.391 2.99733 172.961 1.95977 172.196 1.19477C171.431 0.429772 170.394 0 169.312 0ZM173.213 197.952C173.211 198.986 172.799 199.977 172.068 200.708C171.337 201.439 170.346 201.851 169.312 201.853H31.3477C30.3145 201.851 29.3242 201.439 28.5942 200.708C27.8642 199.977 27.4543 198.985 27.4543 197.952V4.04349C27.4543 3.01022 27.8642 2.01916 28.5942 1.28786C29.3242 0.556562 30.3145 0.14477 31.3477 0.142877H169.312C170.345 0.146642 171.335 0.558806 172.066 1.2895C172.797 2.02019 173.209 3.01014 173.213 4.04349V197.952Z" fill="#E0E0E0"/>
<path d="M323.843 0H185.893C184.818 0.00182049 183.787 0.427287 183.023 1.18418C182.26 1.94107 181.825 2.9684 181.814 4.04349V197.952C181.814 199.034 182.244 200.072 183.009 200.837C183.774 201.602 184.811 202.031 185.893 202.031H323.843C324.923 202.028 325.956 201.596 326.718 200.832C327.48 200.067 327.908 199.032 327.908 197.952V4.04349C327.899 2.97028 327.467 1.94402 326.706 1.18713C325.945 0.430245 324.916 0.00371808 323.843 0ZM327.744 197.952C327.742 198.986 327.33 199.977 326.599 200.708C325.868 201.439 324.877 201.851 323.843 201.853H185.893C184.859 201.853 183.867 201.442 183.135 200.71C182.404 199.979 181.993 198.987 181.993 197.952V4.04349C181.994 3.00956 182.406 2.01852 183.137 1.28743C183.868 0.55633 184.859 0.144766 185.893 0.142877H323.843C324.877 0.146642 325.866 0.558806 326.597 1.2895C327.328 2.02019 327.74 3.01014 327.744 4.04349V197.952Z" fill="#E0E0E0"/>
<path d="M265.063 35.0983H340.682C340.682 35.0983 336.117 26.8256 326.701 29.3832C326.701 29.3832 327.844 15.5596 320.421 13.3449C312.999 11.1303 308.991 19.6816 308.991 19.6816C308.991 19.6816 303.854 3.70059 294.153 5.7009C284.451 7.70121 280.458 24.2752 280.458 24.2752C280.458 24.2752 266.206 19.1173 265.063 35.0983Z" fill="#F5F5F5"/>
<path d="M155.731 62.1526H231.379C231.379 62.1526 226.807 53.8727 217.391 56.4374C217.391 56.4374 218.534 42.6138 211.111 40.392C203.689 38.1703 199.681 46.7359 199.681 46.7359C199.681 46.7359 194.545 30.7548 184.843 32.748C175.142 34.7412 171.141 51.3223 171.141 51.3223C171.141 51.3223 156.874 46.1715 155.731 62.1526Z" fill="#F5F5F5"/>
<path d="M154.36 11.1732H27.5328V233.894H154.36V11.1732Z" fill="#F5F5F5"/>
<path d="M133.228 82.2985H52.8297V234.072H133.228V82.2985Z" fill="#FAFAFA"/>
<path d="M128.148 87.1207H58.6234V234.072H128.148V87.1207Z" fill="#E6E6E6"/>
<path d="M158.953 12.7948H27.5043V2.89328C27.8352 2.03192 28.4252 1.29446 29.1929 0.782628C29.9607 0.270796 30.8683 0.00981616 31.7907 0.0356891H154.46L154.517 0.178569L157.739 9.37286L158.953 12.7948Z" fill="#EBEBEB"/>
<path d="M33.8767 18.7744C37.5105 18.7744 40.4563 16.0973 40.4563 12.7949C40.4563 9.49248 37.5105 6.81537 33.8767 6.81537C30.2429 6.81537 27.2971 9.49248 27.2971 12.7949C27.2971 16.0973 30.2429 18.7744 33.8767 18.7744Z" fill="#EBEBEB"/>
<path d="M47.043 18.7744C50.6768 18.7744 53.6226 16.0973 53.6226 12.7949C53.6226 9.49248 50.6768 6.81537 47.043 6.81537C43.4092 6.81537 40.4634 9.49248 40.4634 12.7949C40.4634 16.0973 43.4092 18.7744 47.043 18.7744Z" fill="#EBEBEB"/>
<path d="M60.2094 18.7744C63.8432 18.7744 66.7889 16.0973 66.7889 12.7949C66.7889 9.49248 63.8432 6.81537 60.2094 6.81537C56.5755 6.81537 53.6298 9.49248 53.6298 12.7949C53.6298 16.0973 56.5755 18.7744 60.2094 18.7744Z" fill="#EBEBEB"/>
<path d="M73.3757 18.7744C77.0095 18.7744 79.9553 16.0973 79.9553 12.7949C79.9553 9.49248 77.0095 6.81537 73.3757 6.81537C69.7419 6.81537 66.7961 9.49248 66.7961 12.7949C66.7961 16.0973 69.7419 18.7744 73.3757 18.7744Z" fill="#EBEBEB"/>
<path d="M86.542 18.7744C90.1758 18.7744 93.1216 16.0973 93.1216 12.7949C93.1216 9.49248 90.1758 6.81537 86.542 6.81537C82.9082 6.81537 79.9624 9.49248 79.9624 12.7949C79.9624 16.0973 82.9082 18.7744 86.542 18.7744Z" fill="#EBEBEB"/>
<path d="M99.7084 18.7744C103.342 18.7744 106.288 16.0973 106.288 12.7949C106.288 9.49248 103.342 6.81537 99.7084 6.81537C96.0745 6.81537 93.1288 9.49248 93.1288 12.7949C93.1288 16.0973 96.0745 18.7744 99.7084 18.7744Z" fill="#EBEBEB"/>
<path d="M112.868 18.7744C116.501 18.7744 119.447 16.0973 119.447 12.7949C119.447 9.49248 116.501 6.81537 112.868 6.81537C109.234 6.81537 106.288 9.49248 106.288 12.7949C106.288 16.0973 109.234 18.7744 112.868 18.7744Z" fill="#EBEBEB"/>
<path d="M126.034 18.7744C129.668 18.7744 132.613 16.0973 132.613 12.7949C132.613 9.49248 129.668 6.81537 126.034 6.81537C122.4 6.81537 119.454 9.49248 119.454 12.7949C119.454 16.0973 122.4 18.7744 126.034 18.7744Z" fill="#EBEBEB"/>
<path d="M139.2 18.7744C142.834 18.7744 145.78 16.0973 145.78 12.7949C145.78 9.49248 142.834 6.81537 139.2 6.81537C135.566 6.81537 132.621 9.49248 132.621 12.7949C132.621 16.0973 135.566 18.7744 139.2 18.7744Z" fill="#EBEBEB"/>
<path d="M158.953 12.7949C158.953 16.0954 156.003 18.7744 152.367 18.7744C148.73 18.7744 145.78 16.0954 145.78 12.7949C145.78 9.49437 148.73 6.81538 152.367 6.81538C153.395 6.80083 154.413 7.02032 155.343 7.45722C156.274 7.89412 157.093 8.53699 157.739 9.3372L158.953 12.7949Z" fill="#EBEBEB"/>
<path d="M154.36 30.5047H27.5328V32.5907H154.36V30.5047Z" fill="#FAFAFA"/>
<path d="M252.739 186.686H154.367V191.108H252.739V186.686Z" fill="#E0E0E0"/>
<path d="M175.056 233.886H160.203V164.954L167.626 158.61L175.056 164.954V233.886Z" fill="#E6E6E6"/>
<path d="M196.331 233.886H181.478V164.954L188.908 158.61L196.331 164.954V233.886Z" fill="#E6E6E6"/>
<path d="M217.612 233.886H202.76V164.954L210.183 158.61L217.612 164.954V233.886Z" fill="#E6E6E6"/>
<path d="M238.887 233.886H224.035V164.954L231.465 158.61L238.887 164.954V233.886Z" fill="#E6E6E6"/>
<path d="M260.162 233.886H245.317V164.954L252.739 158.61L260.162 164.954V233.886Z" fill="#E6E6E6"/>
<path d="M106.695 25.0182C106.695 25.0182 105.316 21.6463 96.8222 22.6464C88.328 23.6466 87.4493 34.8912 83.2058 42.8853C78.9623 50.8794 74.4544 54.7586 74.4544 54.7586C74.4544 54.7586 73.8329 59.6307 83.0772 62.3812C92.3215 65.1316 110.439 60.538 110.439 60.538C110.439 60.538 112.782 39.2561 109.303 32.7623C105.824 26.2684 106.695 25.0182 106.695 25.0182Z" fill="#263238"/>
<path d="M131.528 237.601L120.019 238.316C120.019 238.316 115.139 193.966 109.767 161.675C109.767 161.568 109.767 161.447 109.717 161.325C107.517 148.145 105.238 137.036 103.18 131.828C103.18 131.828 100.537 173.17 99.7512 191.523C98.9654 209.876 95.3006 241.988 95.3006 241.988L84.6632 243.567C84.6632 243.567 82.9058 179.642 83.9488 167.569C84.9918 155.496 80.2411 110.775 88.4281 99.7014H118.04C118.04 99.7014 129.506 162.525 130.335 179.942C131.163 197.359 131.528 237.601 131.528 237.601Z" fill="#263238"/>
<path d="M92.8002 242.131L92.6287 245.56L92.2287 253.497L86.2706 254.383L86.1349 245.817L86.0849 242.524L92.8002 242.131Z" fill="#FF8B7B"/>
<path d="M128.97 250.825L122.305 252.682C122.305 252.682 122.148 248.674 121.99 244.824C121.89 242.345 121.79 239.93 121.726 238.694C121.726 238.216 121.683 237.923 121.669 237.858L128.856 237.144V239.402L128.906 244.502L128.97 250.825Z" fill="#FF8B7B"/>
<path d="M94.629 251.739C94.629 251.739 95.7363 247.303 97.4866 247.524C99.2369 247.746 94.629 251.739 94.629 251.739Z" stroke="#211D1D" stroke-miterlimit="10"/>
<path d="M95.1291 251.739C95.1291 251.739 99.294 248.803 100.066 250.311C100.837 251.818 95.1291 251.739 95.1291 251.739Z" stroke="#211D1D" stroke-miterlimit="10"/>
<path d="M131.528 252.189C131.528 252.189 132.456 247.496 133.507 247.496C134.557 247.496 131.528 252.189 131.528 252.189Z" stroke="#211D1D" stroke-miterlimit="10"/>
<path d="M131.306 253.647C131.306 253.647 133.749 248.839 135.028 249.875C136.307 250.91 131.306 253.647 131.306 253.647Z" stroke="#211D1D" stroke-miterlimit="10"/>
<path d="M99.8299 257.497C99.8299 257.497 87.1279 257.826 86.2063 257.712C85.2847 257.597 84.2632 257.547 84.1917 256.547C84.1917 256.061 84.6275 253.111 84.6989 252.082C84.7704 251.053 84.5132 250.518 85.8062 250.189C87.0993 249.86 93.3789 249.132 94.1361 249.91C94.8934 250.689 97.4795 253.654 99.3941 253.997C101.309 254.34 102.916 254.204 103.052 255.29C103.188 256.376 103.23 257.419 99.8299 257.497Z" fill="#263238"/>
<path d="M136.4 257.497C136.4 257.497 123.705 257.826 122.776 257.712C121.848 257.597 120.933 257.319 120.783 256.854C120.633 256.39 121.205 253.111 121.269 252.082C121.333 251.053 121.083 250.518 122.376 250.189C123.669 249.86 129.949 249.132 130.706 249.91C131.463 250.689 134.049 253.654 135.971 253.997C137.893 254.34 139.486 254.204 139.622 255.29C139.757 256.376 139.8 257.419 136.4 257.497Z" fill="#263238"/>
<path opacity="0.3" d="M109.717 161.318C107.517 148.137 105.238 137.029 103.18 131.821L104.545 124.334C104.545 124.334 108.081 151.052 109.717 161.318Z" fill="black"/>
<path opacity="0.2" d="M92.7859 242.131L92.6144 245.56C90.9427 245.624 87.6137 245.745 86.1206 245.817L86.0706 242.524L92.7859 242.131Z" fill="black"/>
<path opacity="0.2" d="M128.92 244.495L121.99 244.824C121.89 242.345 121.79 239.93 121.726 238.694L128.87 239.409L128.92 244.495Z" fill="black"/>
<path d="M133.492 237.137L132.428 242.574L119.74 243.559L118.076 237.137H133.492Z" fill="#211D1D"/>
<path d="M97.008 238.909L95.8935 244.281L82.6486 244.91L82.6557 238.909H97.008Z" fill="#211D1D"/>
<path d="M136.293 83.1059C133.435 84.4704 125.577 85.9635 125.577 85.9635C125.577 85.9635 120.433 72.6685 119.076 65.1102C118.65 62.4081 117.359 59.917 115.397 58.0107C113.436 56.1043 110.909 54.8855 108.195 54.5371C104.723 54.0871 90.064 54.2371 84.9204 55.2944C79.7767 56.3517 78.8837 63.9029 78.4265 68.4393C77.9693 72.9757 75.1046 89.8712 77.5192 94.872C79.9339 99.8728 88.3995 97.8867 88.3995 97.8867V99.7013H118.018L117.304 85.842C117.304 85.842 120.104 93.2003 124.448 93.5004C128.792 93.8004 138.65 86.5564 138.65 86.5564L136.293 83.1059ZM84.1417 90.8571C84.1417 90.8571 84.4703 82.2272 85.0561 79.7411L85.9491 84.3489L87.2065 90.8571H84.1417Z" fill="#211D1D"/>
<path d="M102.98 88.8996L107.638 83.263L114.175 82.2629L115.175 88.0709L110.174 89.8998C110.174 89.8998 107.767 92.8002 102.959 92.3001L102.98 88.8996Z" fill="#FF8B7B"/>
<path d="M136.293 83.1059L138.714 78.6623L144.623 76.1762L146.859 82.2271L141.965 84.1346C141.965 84.1346 140.686 86.9493 138.714 86.585L136.293 83.1059Z" fill="#FF8B7B"/>
<path d="M103.08 49.122C103.048 49.6359 103.048 50.1512 103.08 50.6651C103.152 51.6438 102.966 53.437 104.888 54.38C103.895 56.5232 101.502 61.8954 100.051 63.7171C97.8438 61.9097 92.6573 54.6157 92.6573 54.6157C92.6573 54.6157 96.3007 50.6651 93.686 43.2211C93.686 43.2211 90.014 40.535 90.7499 39.0562C91.5929 37.3345 93.9861 38.2632 94.4933 38.9919C93.9575 38.206 91.4643 29.5833 94.4933 26.4113C96.3793 24.4325 98.2653 24.411 101.78 24.2681H102.073C104.323 24.1896 105.995 24.2681 105.995 24.2681C106.759 25.0911 107.432 25.9941 108.003 26.9614C109.597 29.5636 110.574 32.496 110.86 35.5342C111.525 42.6139 110.131 48.3505 103.08 49.122Z" fill="#FF8B7B"/>
<path d="M105.024 40.3207C105.024 40.3207 101.823 41.4065 100.659 38.9776" stroke="#263238" stroke-width="0.5" stroke-linecap="round" stroke-linejoin="round"/>
<path d="M101.159 30.1048C100.623 30.089 100.094 30.224 99.632 30.4943C99.1697 30.7646 98.7927 31.1594 98.5439 31.6336" stroke="#263238" stroke-linecap="round" stroke-linejoin="round"/>
<path d="M109.303 29.369C109.043 29.0852 108.729 28.8566 108.379 28.6971C108.03 28.5375 107.651 28.4502 107.267 28.4403" stroke="#263238" stroke-linecap="round" stroke-linejoin="round"/>
<path d="M106.359 39.0062L105.731 33.6553L108.881 37.6988C108.881 37.6988 108.574 39.0919 106.359 39.0062Z" fill="#FF5652"/>
<path d="M101.187 33.6982C101.223 34.2411 101.544 34.6626 101.902 34.6412C102.259 34.6197 102.509 34.1554 102.466 33.6053C102.423 33.0552 102.116 32.6408 101.752 32.6694C101.387 32.698 101.144 33.1766 101.187 33.6982Z" fill="#263238"/>
<path d="M107.417 32.8052C107.46 33.3553 107.774 33.7768 108.131 33.7482C108.488 33.7196 108.738 33.2624 108.696 32.7123C108.653 32.1623 108.338 31.7479 107.981 31.7765C107.624 31.8051 107.381 32.2623 107.417 32.8052Z" fill="#263238"/>
<path d="M92.3215 35.0341C92.3215 35.0341 88.671 30.1405 91.6857 26.9686C93.5717 24.9897 98.6439 23.6967 102.152 23.5466C102.073 24.3753 102.152 31.6336 92.3215 35.0341Z" fill="#263238"/>
<path d="M108.06 26.9829C105.817 26.7563 103.712 25.7943 102.073 24.2468L101.794 23.9538C103.201 23.8957 104.611 23.9964 105.995 24.2539C106.759 25.0769 107.432 25.9799 108.003 26.9472L108.06 26.9829Z" fill="#263238"/>
<path opacity="0.2" d="M103.102 50.6651C101.549 50.193 100.172 49.2706 99.144 48.0147C100.375 48.6288 101.71 49.0045 103.08 49.122C103.055 49.6363 103.063 50.1517 103.102 50.6651Z" fill="black"/>
<path opacity="0.2" d="M85.9563 84.349L85.0633 79.7411V73.1258C85.0633 73.1258 86.092 80.1055 85.9563 84.349Z" fill="black"/>
<path d="M217.247 62.9469L165.172 65.8948L167.441 105.973L219.516 103.025L217.247 62.9469Z" fill="#211D1D"/>
<path opacity="0.3" d="M217.247 62.9469L165.172 65.8948L167.441 105.973L219.516 103.025L217.247 62.9469Z" fill="black"/>
<path d="M198.321 64.0219L146.246 66.9698L148.515 107.048L200.59 104.1L198.321 64.0219Z" fill="#211D1D"/>
<path opacity="0.3" d="M198.321 64.0219L146.246 66.9698L148.515 107.048L200.59 104.1L198.321 64.0219Z" fill="white"/>
<path opacity="0.3" d="M204.763 67.4853L193.647 68.1523L193.872 71.9029L204.988 71.2359L204.763 67.4853Z" fill="black"/>
<path opacity="0.5" d="M160.596 71.1728L149.497 71.8011L149.841 77.8638L160.939 77.2355L160.596 71.1728Z" fill="white"/>
<path opacity="0.3" d="M164.472 86.9826L147.439 87.9468L147.707 92.6756L164.739 91.7115L164.472 86.9826Z" fill="black"/>
<path d="M232.293 29.9117L229.436 33.5552C230.227 34.1078 231.138 34.4675 232.093 34.6053L232.293 29.9117Z" fill="#A02724"/>
<path d="M281.615 253.361L273.314 252.889L271.628 245.81L270.706 241.93L270.364 240.502L276.75 240.066L277.207 240.03L278.565 244.138L281.615 253.361Z" fill="#B55B52"/>
<path d="M233.879 254.525C234.036 255.09 226.171 254.082 226.171 254.082L225.892 247.474L225.678 242.373V242.095H225.742L233.729 242.888C233.729 242.888 233.729 245.031 233.729 247.467C233.744 250.596 233.786 254.218 233.879 254.525Z" fill="#B55B52"/>
<path d="M250.539 49.072C250.539 49.072 239.323 52.1081 240.152 49.9078C240.569 48.576 240.736 47.1784 240.645 45.7857C240.645 44.8713 240.53 44.2212 240.53 44.2212C236.472 44.457 233.743 41.5208 232.529 37.9059C230.964 33.2695 231.536 28.0901 233.436 23.6894C233.586 23.3322 234.015 21.8177 234.394 21.632L238.794 19.6031C238.794 19.6031 243.081 22.4107 245.31 24.1538C247.538 25.8969 249.332 33.9982 249.332 40.2992C249.332 46.6001 250.539 49.072 250.539 49.072Z" fill="#B55B52"/>
<path d="M231.957 28.5758C231.759 28.63 231.583 28.7456 231.455 28.9061C231.327 29.0665 231.252 29.2635 231.243 29.4688C231.214 29.6595 231.243 29.8545 231.327 30.0281C231.412 30.2016 231.547 30.3454 231.715 30.4404L231.957 28.5758Z" fill="#263238"/>
<path d="M231.958 24.9468C232.424 24.9363 232.884 25.063 233.279 25.3111" stroke="#263238" stroke-linecap="round" stroke-linejoin="round"/>
<path d="M235.858 36.5413C235.858 36.5413 239.116 41.6278 244.302 42.7923C249.489 43.9568 251.125 42.1565 251.818 39.2203C252.418 36.4519 253.748 33.8942 255.668 31.812C257.461 29.9617 256.383 24.9395 254.104 20.8103C254.104 20.8103 256.547 18.76 252.611 16.7882C248.674 14.8165 247.224 18.0956 243.809 16.181C240.395 14.2664 244.952 13.6306 241.73 19.603C238.509 25.5753 236.73 21.2318 236.251 23.8894C235.772 26.5469 233.279 31.1619 235.858 36.5413Z" fill="#263238"/>
<path d="M236.251 25.1253C235.93 25.0182 225.599 21.2819 225.499 19.5888C225.399 17.8956 233.508 20.9747 233.815 21.0961L235.908 24.4038L236.251 25.1253Z" fill="#211D1D"/>
<path d="M257.097 29.2188C256.997 29.526 256.383 31.562 256.118 31.562L255.254 31.512C254.449 31.4453 253.649 31.3525 252.854 31.2334C251.975 31.0977 251.111 30.9262 250.26 30.7262H250.225C249.36 30.519 248.51 30.2904 247.681 30.0118C245.647 29.3976 243.651 28.6653 241.702 27.8186C240.602 27.3399 239.63 26.8756 238.844 26.4755C237.237 25.6754 236.28 25.111 236.28 25.111L236.137 24.8753L235.551 23.9537L234.301 21.9748L233.872 21.3104V21.2604C233.852 21.2001 233.852 21.1349 233.872 21.0747C233.915 20.3174 235.465 18.2171 235.744 17.8599C236.891 16.3263 238.353 15.055 240.03 14.1307C242.331 12.8591 244.924 13.4163 247.367 13.845C248.175 14.0128 248.963 14.2667 249.717 14.6022L250.196 14.8094L250.289 14.8523C250.375 14.9023 250.468 14.938 250.553 14.9809L250.71 15.0595C252.526 15.9097 254.178 17.0728 255.59 18.4957C258.805 22.1034 257.497 28.0543 257.097 29.2188Z" fill="#211D1D"/>
<path d="M253.604 52.9083C253.604 52.9083 253.089 49.3363 251.968 48.6219C250.846 47.9075 239.702 48.0146 237.966 49.2363C236.23 50.4579 236.537 54.4514 236.537 54.4514L253.604 52.9083Z" fill="#211D1D"/>
<path d="M233.822 30.8976C233.822 30.8976 235.722 28.4401 237.758 29.9617C239.794 31.4834 238.18 35.0911 235.787 36.1055C235.787 36.1055 232.693 37.1128 232.293 33.9624C231.893 30.8119 233.822 30.8976 233.822 30.8976Z" fill="#B55B52"/>
<path d="M226.199 116.425C226.199 116.425 221.949 157.096 220.763 175.799C219.577 194.502 223.935 242.331 223.935 242.331H234.272C234.272 242.331 235.458 194.816 237.244 180.564C239.03 166.312 244.96 146.987 244.96 146.987C244.96 146.987 248.531 177.571 252.103 190.044C255.675 202.517 267.277 240.623 267.277 240.623L279.179 238.337C279.179 238.337 264.891 189.451 264.891 174.306C264.891 159.16 265.027 128.584 261.469 116.44L226.199 116.425Z" fill="#211D1D"/>
<path opacity="0.3" d="M279.158 238.351L267.263 240.644C267.263 240.644 255.668 202.539 252.096 190.065C250.132 183.207 248.174 170.855 246.81 161.132C245.667 153.195 244.952 147.008 244.952 147.008C244.952 147.008 239.016 166.297 237.23 180.585C235.444 194.873 234.265 242.352 234.265 242.352H223.935C223.935 242.352 219.577 194.53 220.763 175.827C221.949 157.124 226.199 116.447 226.199 116.447H261.434C265.005 128.591 264.863 159.203 264.863 174.313C264.863 189.422 279.158 238.351 279.158 238.351Z" fill="black"/>
<path opacity="0.3" d="M246.803 161.132C245.667 153.195 244.952 147.009 244.952 147.009L245.667 135.907L246.803 161.132Z" fill="black"/>
<path d="M222.813 240.344H235.201L234.594 245.445H223.299L222.813 240.344Z" fill="#263238"/>
<path d="M265.77 239.602L279.165 234.622L280.858 241.866L267.784 245.445L265.77 239.602Z" fill="#263238"/>
<path opacity="0.2" d="M276.75 240.066L270.706 241.93L271.628 245.81L278.565 244.138L276.75 240.066Z" fill="black"/>
<path opacity="0.2" d="M233.729 247.496H225.871L225.656 242.395L225.707 242.123L233.693 242.916C233.693 242.916 233.715 245.031 233.729 247.496Z" fill="black"/>
<path d="M222.092 257.061C222.142 257.197 217.148 254.289 218.52 252.932C219.891 251.575 222.092 257.061 222.092 257.061Z" stroke="#211D1D" stroke-miterlimit="10"/>
<path d="M222.806 256.854C222.77 256.997 220.02 251.918 221.892 251.468C223.763 251.018 222.806 256.854 222.806 256.854Z" stroke="#211D1D" stroke-miterlimit="10"/>
<path d="M272.164 253.975C272.164 253.975 270.528 248.71 268.942 249.574C267.356 250.439 272.164 253.975 272.164 253.975Z" stroke="#211D1D" stroke-miterlimit="10"/>
<path d="M271.721 254.432C271.721 254.432 268.027 250.353 266.949 251.782C265.87 253.211 271.721 254.432 271.721 254.432Z" stroke="#211D1D" stroke-miterlimit="10"/>
<path d="M281.922 252.875H273.05C273.05 252.875 267.92 255.961 265.67 256.247C263.419 256.533 262.098 256.668 262.162 258.283C262.226 259.898 263.591 260.04 268.199 259.969C272.807 259.898 281.951 260.462 282.944 259.547C283.937 258.633 283.308 256.911 281.922 252.875Z" fill="#263238"/>
<path d="M233.879 253.975L225.307 254.039C225.307 254.039 220.177 257.126 217.934 257.411C215.691 257.697 214.362 257.833 214.419 259.447C214.476 261.062 215.848 261.205 220.463 261.133C225.078 261.062 233.215 261.726 234.208 260.812C235.201 259.897 234.651 258.397 233.879 253.975Z" fill="#263238"/>
<path opacity="0.3" d="M233.815 21.0961C234.036 22.232 234.265 23.1036 236.144 25.0825C233.758 24.1966 225.585 21.039 225.499 19.5887C225.414 18.1385 231.758 20.3174 233.815 21.0961Z" fill="black"/>
<path opacity="0.3" d="M233.815 21.2747C233.795 21.2145 233.795 21.1493 233.815 21.089C233.815 21.089 233.815 21.1676 233.815 21.3176V21.2747Z" fill="black"/>
<path opacity="0.3" d="M236.251 25.1253L236.03 25.0396C236.041 25.0096 236.055 24.9809 236.072 24.9539L236.251 25.1253Z" fill="black"/>
<path d="M257.097 29.2188C256.997 29.526 256.383 31.562 256.118 31.562L255.254 31.512C254.449 31.4453 253.649 31.3525 252.854 31.2334C251.975 31.0977 251.111 30.9262 250.26 30.7262H250.225C249.36 30.519 248.51 30.2904 247.681 30.0118C245.647 29.3976 243.651 28.6653 241.702 27.8186C240.602 27.3399 239.63 26.8756 238.844 26.4755C237.237 25.6754 236.28 25.111 236.28 25.111L236.137 24.8753L235.551 23.9537L234.301 21.9748L233.872 21.3104V21.2604C233.852 21.2001 233.852 21.1349 233.872 21.0747C233.915 20.3174 235.465 18.2171 235.744 17.8599C236.891 16.3263 238.353 15.055 240.03 14.1307C242.331 12.8591 244.924 13.4163 247.367 13.845C248.175 14.0128 248.963 14.2667 249.717 14.6022L250.196 14.8094L250.289 14.8523C250.375 14.9023 250.468 14.938 250.553 14.9809L250.71 15.0595C252.526 15.9097 254.178 17.0728 255.59 18.4957C258.805 22.1034 257.497 28.0543 257.097 29.2188Z" fill="#211D1D"/>
<path opacity="0.2" d="M243.045 43.5353C242.284 44.3266 241.483 45.0778 240.645 45.7857C240.645 44.8713 240.53 44.2212 240.53 44.2212C241.392 44.0899 242.236 43.8598 243.045 43.5353Z" fill="black"/>
<path d="M226.199 116.825V80.2338L219.52 77.512C219.52 77.512 220.799 57.9875 230.307 54.9085C239.816 51.8294 256.74 50.5364 261.398 54.9085C264.341 57.6875 264.734 62.1453 264.841 65.9673C265.07 73.7543 263.034 81.3697 262.584 89.1138C262.226 95.4148 262.012 101.716 261.869 108.024C261.869 108.51 261.684 116.825 261.669 116.825H226.199Z" fill="#263238"/>
<path d="M229.857 81.484C229.857 81.484 224.914 97.8152 220.027 98.8367C215.141 99.8583 198.452 90.7498 198.452 90.7498H191.001L189.944 84.1988C189.944 84.1988 196.881 81.6269 201.503 84.706C201.503 84.706 212.297 89.4139 215.891 90.7855L221.099 78.1835L229.857 81.484Z" fill="#B55B52"/>
</svg>
