<svg width="25" height="24" viewBox="0 0 25 24" fill="none" xmlns="http://www.w3.org/2000/svg">
<g opacity="0.4">
<path d="M6.5 10V8C6.5 4.69 7.5 2 12.5 2C17.5 2 18.5 4.69 18.5 8V10" fill="#62666A"/>
<path d="M6.5 10V8C6.5 4.69 7.5 2 12.5 2C17.5 2 18.5 4.69 18.5 8V10" stroke="#292D32" stroke-width="1.5" stroke-linecap="round" stroke-linejoin="round"/>
</g>
<path d="M17.5 22H7.5C3.5 22 2.5 21 2.5 17V15C2.5 11 3.5 10 7.5 10H17.5C21.5 10 22.5 11 22.5 15V17C22.5 21 21.5 22 17.5 22Z" stroke="#292D32" stroke-width="1.5" stroke-linecap="round" stroke-linejoin="round"/>
<path opacity="0.4" d="M16.4965 16H16.5054" stroke="#292D32" stroke-width="2" stroke-linecap="round" stroke-linejoin="round"/>
<path opacity="0.4" d="M12.4955 16H12.5045" stroke="#292D32" stroke-width="2" stroke-linecap="round" stroke-linejoin="round"/>
<path opacity="0.4" d="M8.49451 16H8.50349" stroke="#292D32" stroke-width="2" stroke-linecap="round" stroke-linejoin="round"/>
</svg>
