<svg width="33" height="33" viewBox="0 0 33 33" fill="none" xmlns="http://www.w3.org/2000/svg">
<path d="M16.6935 10.795H9.81632C7.38909 10.795 6.84101 12.0087 6.54087 13.5094L5.43164 18.7945H21.0912L19.982 13.5094C19.6558 12.0087 19.1207 10.795 16.6935 10.795Z" stroke="#7F60D2" stroke-width="1.46809" stroke-linecap="round" stroke-linejoin="round"/>
<path d="M23.0225 27.4204C23.1269 28.5687 22.2134 29.5605 21.039 29.5605H19.199C18.1419 29.5605 17.9984 29.1038 17.8027 28.5557L17.6069 27.9685C17.3329 27.1725 17.1502 26.6243 15.7408 26.6243H10.7297C9.32039 26.6243 9.11158 27.2377 8.86364 27.9685L8.6679 28.5557C8.48521 29.1168 8.34165 29.5605 7.27158 29.5605H5.43158C4.25711 29.5605 3.3306 28.5687 3.44804 27.4204L3.99613 21.4567C4.13967 19.982 4.41371 18.7815 6.98449 18.7815H19.473C22.0438 18.7815 22.3178 19.982 22.4614 21.4567L23.0225 27.4204Z" stroke="#7F60D2" stroke-width="1.46809" stroke-linecap="round" stroke-linejoin="round"/>
<path d="M5.41854 15.8583H4.43982" stroke="#7F60D2" stroke-width="1.46809" stroke-linecap="round" stroke-linejoin="round"/>
<path d="M22.0568 15.8583H21.0781" stroke="#7F60D2" stroke-width="1.46809" stroke-linecap="round" stroke-linejoin="round"/>
<path opacity="0.4" d="M7.37598 22.7094H10.3121" stroke="#7F60D2" stroke-width="1.46809" stroke-linecap="round" stroke-linejoin="round"/>
<path opacity="0.4" d="M16.1844 22.7094H19.1206" stroke="#7F60D2" stroke-width="1.46809" stroke-linecap="round" stroke-linejoin="round"/>
<path opacity="0.4" d="M25.2671 12.2566C25.6325 11.4083 25.502 10.26 24.8234 9.25516C24.1579 8.25034 23.14 7.6892 22.2135 7.70225" stroke="#7F60D2" stroke-width="1.46809" stroke-linecap="round" stroke-linejoin="round"/>
<path opacity="0.4" d="M29.3255 13.5484C29.8736 11.5779 29.4821 9.16378 28.0858 7.07584C26.6895 4.98789 24.6015 3.709 22.5658 3.46106" stroke="#7F60D2" stroke-width="1.46809" stroke-linecap="round" stroke-linejoin="round"/>
</svg>
