<?xml version="1.0" standalone="no"?>
<!DOCTYPE svg PUBLIC "-//W3C//DTD SVG 20010904//EN"
 "http://www.w3.org/TR/2001/REC-SVG-20010904/DTD/svg10.dtd">
<svg version="1.0" xmlns="http://www.w3.org/2000/svg"
 width="300.000000pt" height="284.000000pt" viewBox="0 0 300.000000 284.000000"
 preserveAspectRatio="xMidYMid meet">

<g transform="translate(0.000000,284.000000) scale(0.100000,-0.100000)"
fill="#000000" stroke="none">
<path d="M1063 2634 c-11 -30 10 -69 37 -69 21 0 25 4 23 28 -3 49 -46 78 -60
41z"/>
<path d="M1913 2628 c-19 -25 -22 -48 -7 -62 19 -19 38 -12 53 21 18 39 -21
74 -46 41z"/>
<path d="M1475 2557 c-3 -7 -4 -56 -3 -108 3 -93 3 -94 28 -94 l25 0 0 105 c0
101 -1 105 -23 108 -12 2 -24 -3 -27 -11z"/>
<path d="M1113 2494 c-9 -24 23 -84 46 -84 27 0 35 33 16 70 -17 33 -51 41
-62 14z"/>
<path d="M1844 2475 c-18 -44 -18 -61 1 -69 25 -9 43 4 55 40 14 42 7 64 -20
64 -15 0 -26 -11 -36 -35z"/>
<path d="M806 2284 c-9 -8 -16 -19 -16 -22 0 -4 31 -38 69 -76 46 -45 75 -67
87 -64 38 7 27 39 -33 100 -73 75 -87 83 -107 62z"/>
<path d="M2099 2234 c-71 -70 -86 -105 -45 -112 20 -4 156 122 156 145 0 7 -9
17 -20 23 -18 10 -29 3 -91 -56z"/>
<path d="M1475 2177 c-8 -13 -45 -95 -81 -183 -36 -87 -70 -163 -75 -169 -6
-5 -101 -19 -212 -30 l-202 -20 -2 -25 c-2 -20 15 -39 90 -102 50 -43 119
-102 151 -131 l59 -53 -32 -144 c-18 -80 -39 -169 -47 -199 -14 -55 -8 -81 20
-81 7 0 89 47 184 105 l172 104 172 -104 c95 -58 177 -105 184 -105 32 0 33
26 5 146 -16 65 -37 155 -47 199 l-17 79 59 53 c32 30 101 88 151 131 75 63
92 82 90 102 l-2 25 -202 20 c-111 11 -206 25 -212 30 -5 6 -39 82 -75 169
-89 215 -100 230 -131 183z m96 -262 c33 -77 65 -145 72 -152 7 -6 82 -17 172
-25 99 -8 160 -17 160 -24 0 -6 -55 -59 -123 -118 -118 -103 -123 -109 -117
-139 3 -18 20 -92 37 -165 17 -73 28 -136 25 -139 -4 -3 -72 34 -152 82 l-145
88 -145 -88 c-80 -48 -148 -85 -152 -82 -3 3 12 78 32 166 33 138 36 162 24
177 -7 9 -61 57 -119 107 -58 50 -108 96 -112 101 -12 18 12 23 167 36 83 7
155 16 162 22 6 5 33 60 59 121 26 62 53 127 61 145 8 18 19 32 24 30 6 -2 38
-66 70 -143z"/>
<path d="M453 2033 c-8 -21 30 -53 63 -53 35 0 43 29 15 52 -29 22 -70 23 -78
1z"/>
<path d="M2489 2011 c-23 -19 -23 -21 -7 -37 25 -26 73 -8 73 26 0 33 -33 38
-66 11z"/>
<path d="M592 1988 c-20 -20 -14 -37 18 -53 38 -19 66 -19 74 1 8 22 -1 34
-40 50 -40 17 -37 17 -52 2z"/>
<path d="M2373 1972 c-41 -16 -61 -41 -48 -62 9 -15 42 -12 78 6 37 19 47 32
40 50 -8 21 -26 22 -70 6z"/>
<path d="M522 1603 c-19 -37 -5 -43 104 -43 84 0 106 3 110 15 13 34 -15 45
-112 45 -79 0 -95 -3 -102 -17z"/>
<path d="M2270 1605 c-7 -8 -10 -22 -6 -30 8 -23 211 -22 220 1 13 34 -12 44
-109 44 -70 0 -96 -4 -105 -15z"/>
<path d="M606 1257 c-23 -17 -17 -51 10 -55 28 -4 69 30 61 51 -8 20 -46 22
-71 4z"/>
<path d="M2323 1245 c-26 -20 -6 -47 41 -59 29 -8 39 -7 46 4 22 35 -51 81
-87 55z"/>
<path d="M483 1210 c-30 -13 -43 -25 -43 -39 0 -29 33 -35 77 -14 39 19 55 49
31 64 -17 11 -16 12 -65 -11z"/>
<path d="M2460 1166 c0 -17 9 -27 30 -36 36 -15 60 -7 60 19 0 24 -28 41 -64
41 -21 0 -26 -5 -26 -24z"/>
<path d="M2093 963 c-18 -10 -77 -58 -133 -107 -76 -67 -100 -94 -98 -110 6
-44 41 -28 143 65 55 50 111 95 124 101 51 19 111 -16 125 -74 13 -56 23 -46
-398 -423 -98 -88 -191 -168 -207 -178 -28 -18 -33 -18 -291 18 -396 56 -390
55 -430 44 -41 -11 -98 -54 -98 -74 0 -7 7 -18 15 -25 13 -11 20 -10 43 8 54
44 55 44 397 -5 276 -39 331 -44 363 -35 21 7 70 42 113 79 489 437 538 483
550 522 23 76 -14 160 -84 191 -53 24 -93 25 -134 3z"/>
<path d="M814 880 c-52 -26 -309 -256 -309 -277 0 -9 7 -21 17 -26 13 -9 40
11 148 108 73 65 149 127 168 137 55 27 54 28 472 -47 47 -8 130 -22 185 -31
55 -9 114 -22 131 -30 72 -34 71 -134 -2 -169 -29 -14 -43 -14 -136 -1 -57 8
-140 18 -185 22 -72 6 -83 4 -89 -10 -10 -27 13 -43 74 -50 346 -41 355 -41
404 11 37 40 48 66 48 113 0 49 -19 89 -59 123 -30 25 -30 25 -356 83 -44 7
-144 25 -221 39 -174 31 -235 32 -290 5z"/>
</g>
</svg>
