<svg width="25" height="24" viewBox="0 0 25 24" fill="none" xmlns="http://www.w3.org/2000/svg">
<path opacity="0.4" d="M21.5406 7.19L12.5006 12.42L3.46057 7.19C3.86057 6.45 4.44057 5.8 5.09057 5.44L10.4306 2.48C11.5706 1.84 13.4306 1.84 14.5706 2.48L19.9106 5.44C20.5606 5.8 21.1406 6.45 21.5406 7.19Z" fill="#010102"/>
<path opacity="0.6" d="M12.5006 12.4199V21.9999C11.7506 21.9999 11.0006 21.8399 10.4306 21.5199L5.09063 18.5599C3.88063 17.8899 2.89062 16.2099 2.89062 14.8299V9.16994C2.89062 8.52994 3.11062 7.82994 3.46062 7.18994L12.5006 12.4199Z" fill="#010102"/>
<path d="M22.1106 9.16994V14.8299C22.1106 16.2099 21.1206 17.8899 19.9106 18.5599L14.5706 21.5199C14.0006 21.8399 13.2506 21.9999 12.5006 21.9999V12.4199L21.5406 7.18994C21.8906 7.82994 22.1106 8.52994 22.1106 9.16994Z" fill="#010102"/>
</svg>
