<svg width="25" height="25" viewBox="0 0 25 25" fill="none" xmlns="http://www.w3.org/2000/svg">
<path opacity="0.4" d="M22.9167 11.4272V13.5731C22.9167 14.146 22.4584 14.6147 21.875 14.6356H19.8333C18.7083 14.6356 17.6771 13.8126 17.5834 12.6876C17.5209 12.0314 17.7708 11.4168 18.2083 10.9897C18.5937 10.5939 19.125 10.3647 19.7083 10.3647H21.875C22.4584 10.3856 22.9167 10.8543 22.9167 11.4272Z" fill="#010102"/>
<path d="M18.2084 10.9897C17.7709 11.4168 17.5209 12.0314 17.5834 12.6877C17.6771 13.8127 18.7084 14.6356 19.8334 14.6356H21.875V16.146C21.875 19.271 19.7917 21.3543 16.6667 21.3543H7.29171C4.16671 21.3543 2.08337 19.271 2.08337 16.146V8.85433C2.08337 6.021 3.79171 4.04183 6.44796 3.70849C6.71879 3.66683 7.00004 3.646 7.29171 3.646H16.6667C16.9375 3.646 17.198 3.6564 17.448 3.69807C20.1355 4.01057 21.875 6.00016 21.875 8.85433V10.3648H19.7084C19.125 10.3648 18.5938 10.5939 18.2084 10.9897Z" fill="#010102"/>
<path d="M13.5416 10.1562H7.29163C6.86454 10.1562 6.51038 9.80208 6.51038 9.375C6.51038 8.94792 6.86454 8.59375 7.29163 8.59375H13.5416C13.9687 8.59375 14.3229 8.94792 14.3229 9.375C14.3229 9.80208 13.9687 10.1562 13.5416 10.1562Z" fill="white"/>
</svg>
