<svg width="16" height="17" viewBox="0 0 16 17" fill="none" xmlns="http://www.w3.org/2000/svg">
<path d="M14.6221 0.5H7.37711C6.76211 0.5 6.25211 1.01 6.25211 1.625C6.25211 2.24 6.76211 2.75 7.37711 2.75H11.9071L0.327105 14.33C-0.107895 14.765 -0.107895 15.485 0.327105 15.92C0.552104 16.145 0.837105 16.25 1.1221 16.25C1.4071 16.25 1.6921 16.145 1.9171 15.92L13.4971 4.34V8.87C13.4971 9.485 14.0071 9.995 14.6221 9.995C15.2371 9.995 15.7471 9.485 15.7471 8.87V1.625C15.7471 1.01 15.2371 0.5 14.6221 0.5Z" fill="#27A54D"/>
</svg>
