<svg width="30" height="30" viewBox="0 0 30 30" fill="none" xmlns="http://www.w3.org/2000/svg">
<path opacity="0.4" d="M24.5126 13.75C24.5126 19.694 19.694 24.5126 13.75 24.5126C7.80608 24.5126 2.98755 19.694 2.98755 13.75C2.98755 7.80608 7.80608 2.98755 13.75 2.98755C19.694 2.98755 24.5126 7.80608 24.5126 13.75Z" fill="white" stroke="#7F60D2"/>
<path d="M17.5 12.3125H10C9.76364 12.3125 9.5625 12.1114 9.5625 11.875C9.5625 11.6386 9.76364 11.4375 10 11.4375H17.5C17.7364 11.4375 17.9375 11.6386 17.9375 11.875C17.9375 12.1114 17.7364 12.3125 17.5 12.3125Z" fill="white" stroke="#7F60D2"/>
<path d="M13.75 16.5625H10C9.4875 16.5625 9.0625 16.1375 9.0625 15.625C9.0625 15.1125 9.4875 14.6875 10 14.6875H13.75C14.2625 14.6875 14.6875 15.1125 14.6875 15.625C14.6875 16.1375 14.2625 16.5625 13.75 16.5625Z" fill="#7F60D2"/>
<path d="M27.4876 23.6875C27.0751 22.925 26.2001 22.5 25.0251 22.5C24.1376 22.5 23.3751 22.8625 22.9251 23.4875C22.4751 24.1125 22.3751 24.95 22.6501 25.7875C23.1876 27.4125 24.1251 27.775 24.6376 27.8375C24.7126 27.85 24.7876 27.85 24.8751 27.85C25.4251 27.85 26.2751 27.6125 27.1001 26.375C27.7626 25.4125 27.8876 24.45 27.4876 23.6875Z" fill="#7F60D2"/>
</svg>
