<svg width="24" height="24" viewBox="0 0 24 24" fill="none" xmlns="http://www.w3.org/2000/svg">
<path d="M22.5 3.58904C22.5 3.50079 22.4766 3.41412 22.4323 3.33782C22.3879 3.26153 22.3242 3.19833 22.2475 3.15466C22.1708 3.11098 22.0839 3.08838 21.9956 3.08915C21.9074 3.08992 21.8209 3.11403 21.745 3.15904C21.0413 3.57813 20.2769 3.88577 19.479 4.07104C18.6071 3.23856 17.4465 2.77622 16.241 2.78104C15.5862 2.78197 14.9388 2.91881 14.3396 3.18289C13.7405 3.44697 13.2027 3.83254 12.7602 4.31522C12.3178 4.79789 11.9804 5.36714 11.7693 5.98696C11.5582 6.60678 11.4781 7.26366 11.534 7.91604C8.51114 7.59478 5.73754 6.09243 3.81701 3.73604C3.76575 3.67344 3.70007 3.62422 3.62559 3.59259C3.55112 3.56096 3.47008 3.54789 3.38944 3.55447C3.3088 3.56106 3.23096 3.58712 3.16261 3.63042C3.09426 3.67371 3.03743 3.73295 2.99701 3.80304C2.58213 4.52653 2.3639 5.34604 2.36401 6.18004C2.36279 7.09538 2.62752 7.99135 3.12601 8.75904L3.06601 8.72604C2.98766 8.68758 2.90067 8.67013 2.81355 8.67538C2.72643 8.68064 2.64217 8.70844 2.56901 8.75604C2.49279 8.8056 2.43023 8.87351 2.38708 8.95353C2.34392 9.03355 2.32155 9.12313 2.32201 9.21404C2.31801 9.33204 2.32501 9.45104 2.34401 9.56704C2.39128 10.2273 2.5777 10.87 2.89102 11.4531C3.20435 12.0361 3.6375 12.5463 4.16201 12.95C4.09809 12.9689 4.03857 13.0003 3.98695 13.0424C3.93534 13.0846 3.89267 13.1366 3.86146 13.1955C3.83025 13.2544 3.81112 13.3189 3.80521 13.3853C3.79929 13.4517 3.80671 13.5186 3.82701 13.582C4.05802 14.3023 4.45932 14.9563 4.99689 15.4885C5.53445 16.0206 6.19243 16.4153 6.91501 16.639C5.4395 17.4651 3.74013 17.8023 2.06101 17.602C1.94849 17.588 1.83453 17.6126 1.73783 17.6718C1.64113 17.731 1.56743 17.8213 1.52883 17.928C1.49022 18.0346 1.48901 18.1512 1.52539 18.2586C1.56176 18.366 1.63356 18.4578 1.72901 18.519C3.73846 19.8129 6.07804 20.5007 8.46801 20.5C11.1792 20.53 13.8243 19.6632 15.9919 18.0345C18.1595 16.4058 19.7282 14.1064 20.454 11.494C20.793 10.357 20.966 9.17604 20.968 7.98904C20.968 7.86904 20.968 7.74404 20.965 7.61704C21.4851 7.08821 21.89 6.45737 22.1542 5.76429C22.4184 5.0712 22.5361 4.33089 22.5 3.59004V3.58904ZM20.076 7.12204C19.9939 7.21917 19.952 7.34404 19.959 7.47104C20.0137 8.73518 19.8568 9.99956 19.495 11.212C18.8496 13.6283 17.4123 15.7581 15.4131 17.2607C13.4139 18.7634 10.9684 19.5519 8.46801 19.5C6.94204 19.5001 5.43144 19.1951 4.02501 18.603C5.67793 18.4197 7.24595 17.7751 8.55001 16.743C8.63115 16.6793 8.69056 16.5919 8.72009 16.4931C8.74963 16.3942 8.74784 16.2886 8.71497 16.1907C8.68211 16.0929 8.61977 16.0076 8.53653 15.9466C8.45328 15.8856 8.3532 15.8519 8.25001 15.85C7.60997 15.8396 6.98351 15.6638 6.43153 15.3396C5.87956 15.0154 5.42086 14.554 5.10001 14C5.52501 14.001 5.94701 13.943 6.35401 13.826C6.46128 13.7946 6.55492 13.7281 6.61998 13.6372C6.68504 13.5463 6.71777 13.4363 6.71293 13.3246C6.7081 13.2129 6.66598 13.1061 6.59331 13.0212C6.52063 12.9362 6.4216 12.8781 6.31201 12.856C5.5962 12.7128 4.93864 12.3614 4.42183 11.8458C3.90502 11.3302 3.55198 10.6735 3.40701 9.95804C3.83169 10.0958 4.27377 10.1725 4.72001 10.186C4.82996 10.1942 4.93929 10.1637 5.02912 10.0998C5.11896 10.0359 5.18365 9.94258 5.21201 9.83604C5.24468 9.73263 5.24283 9.6214 5.20676 9.51912C5.17068 9.41685 5.10233 9.32908 5.01201 9.26904C4.50326 8.9304 4.08642 8.47087 3.79881 7.93162C3.51121 7.39236 3.36182 6.7902 3.36401 6.17904C3.36401 5.76604 3.43101 5.35604 3.56401 4.96604C5.78105 7.36007 8.8454 8.79357 12.104 8.96104C12.1819 8.96937 12.2605 8.95723 12.3323 8.92584C12.404 8.89445 12.4663 8.84488 12.513 8.78204C12.5626 8.72261 12.5977 8.65248 12.6156 8.57717C12.6335 8.50185 12.6336 8.42342 12.616 8.34804C12.55 8.07223 12.5164 7.78965 12.516 7.50604C12.5171 6.51852 12.9097 5.57171 13.6078 4.87324C14.3059 4.17476 15.2525 3.78163 16.24 3.78004C16.7487 3.7786 17.2521 3.88262 17.7186 4.08555C18.185 4.28847 18.6043 4.5859 18.95 4.95904C19.0081 5.02097 19.081 5.06707 19.1618 5.09297C19.2427 5.11886 19.3288 5.12371 19.412 5.10704C20.1216 4.96732 20.8117 4.74201 21.467 4.43604C21.2966 5.45535 20.8096 6.39513 20.075 7.12204H20.076Z" fill="#7F60D2"/>
</svg>
