<svg width="22" height="21" viewBox="0 0 22 21" fill="none" xmlns="http://www.w3.org/2000/svg">
<path d="M17.2084 8.98973C16.7709 9.41682 16.5209 10.0314 16.5834 10.6877C16.6771 11.8127 17.7084 12.6356 18.8334 12.6356H20.875V14.146C20.875 17.271 18.7917 19.3543 15.6667 19.3543H6.29171C3.16671 19.3543 1.08337 17.271 1.08337 14.146V6.85433C1.08337 4.021 2.79171 2.04183 5.44796 1.70849C5.71879 1.66683 6.00004 1.646 6.29171 1.646H15.6667C15.9375 1.646 16.198 1.6564 16.448 1.69807C19.1355 2.01057 20.875 4.00016 20.875 6.85433V8.36476H18.7084C18.125 8.36476 17.5938 8.5939 17.2084 8.98973Z" stroke="#919397" stroke-width="1.5" stroke-linecap="round" stroke-linejoin="round"/>
</svg>
