<svg width="313" height="72" viewBox="0 0 313 72" fill="none" xmlns="http://www.w3.org/2000/svg">
<path d="M0 3C0 1.34315 1.34315 0 3 0H310C311.657 0 313 1.34315 313 3V69C313 70.6569 311.657 72 310 72H3C1.34315 72 0 70.6569 0 69V3Z" fill="black" fill-opacity="0.02"/>
<path d="M132.733 41V30.8182H136.293C137.002 30.8182 137.587 30.9408 138.048 31.1861C138.508 31.428 138.851 31.7545 139.077 32.1655C139.302 32.5732 139.415 33.0256 139.415 33.5227C139.415 33.9602 139.337 34.3215 139.181 34.6065C139.029 34.8916 138.826 35.117 138.575 35.2827C138.326 35.4484 138.056 35.571 137.764 35.6506V35.75C138.076 35.7699 138.389 35.8793 138.704 36.0781C139.019 36.277 139.282 36.562 139.494 36.9332C139.706 37.3045 139.812 37.7585 139.812 38.2955C139.812 38.8059 139.696 39.2649 139.464 39.6726C139.232 40.0803 138.866 40.4034 138.366 40.642C137.865 40.8807 137.214 41 136.412 41H132.733ZM133.966 39.9062H136.412C137.217 39.9062 137.789 39.7505 138.127 39.4389C138.469 39.1241 138.639 38.7429 138.639 38.2955C138.639 37.9508 138.551 37.6326 138.376 37.3409C138.2 37.0459 137.95 36.8106 137.625 36.6349C137.3 36.456 136.916 36.3665 136.472 36.3665H133.966V39.9062ZM133.966 35.2926H136.253C136.624 35.2926 136.959 35.2197 137.257 35.0739C137.559 34.928 137.797 34.7225 137.973 34.4574C138.152 34.1922 138.241 33.8807 138.241 33.5227C138.241 33.0753 138.086 32.6958 137.774 32.3842C137.463 32.0694 136.969 31.9119 136.293 31.9119H133.966V35.2926ZM141.679 41V33.3636H142.813V34.517H142.892C143.032 34.1392 143.283 33.8326 143.648 33.5973C144.013 33.362 144.424 33.2443 144.881 33.2443C144.967 33.2443 145.075 33.246 145.204 33.2493C145.333 33.2526 145.431 33.2576 145.498 33.2642V34.4574C145.458 34.4474 145.367 34.4325 145.224 34.4126C145.085 34.3894 144.937 34.3778 144.782 34.3778C144.41 34.3778 144.079 34.4557 143.787 34.6115C143.499 34.764 143.27 34.9761 143.101 35.2479C142.935 35.5163 142.853 35.8229 142.853 36.1676V41H141.679ZM149.758 41.1591C149.069 41.1591 148.464 40.995 147.944 40.6669C147.426 40.3388 147.022 39.8797 146.73 39.2898C146.442 38.6998 146.298 38.0104 146.298 37.2216C146.298 36.4261 146.442 35.7318 146.73 35.1385C147.022 34.5452 147.426 34.0845 147.944 33.7564C148.464 33.4283 149.069 33.2642 149.758 33.2642C150.448 33.2642 151.051 33.4283 151.568 33.7564C152.088 34.0845 152.493 34.5452 152.781 35.1385C153.073 35.7318 153.218 36.4261 153.218 37.2216C153.218 38.0104 153.073 38.6998 152.781 39.2898C152.493 39.8797 152.088 40.3388 151.568 40.6669C151.051 40.995 150.448 41.1591 149.758 41.1591ZM149.758 40.1051C150.282 40.1051 150.713 39.9709 151.051 39.7024C151.389 39.4339 151.639 39.081 151.801 38.6435C151.964 38.206 152.045 37.732 152.045 37.2216C152.045 36.7112 151.964 36.2356 151.801 35.7947C151.639 35.3539 151.389 34.9976 151.051 34.7259C150.713 34.4541 150.282 34.3182 149.758 34.3182C149.234 34.3182 148.804 34.4541 148.466 34.7259C148.127 34.9976 147.877 35.3539 147.715 35.7947C147.552 36.2356 147.471 36.7112 147.471 37.2216C147.471 37.732 147.552 38.206 147.715 38.6435C147.877 39.081 148.127 39.4339 148.466 39.7024C148.804 39.9709 149.234 40.1051 149.758 40.1051ZM156.48 41L154.153 33.3636H155.386L157.037 39.2102H157.116L158.747 33.3636H160L161.61 39.1903H161.69L163.341 33.3636H164.574L162.247 41H161.093L159.423 35.1335H159.304L157.633 41H156.48ZM171.534 35.0739L170.48 35.3722C170.413 35.1965 170.316 35.0258 170.186 34.8601C170.06 34.6911 169.888 34.5518 169.669 34.4425C169.451 34.3331 169.171 34.2784 168.829 34.2784C168.362 34.2784 167.972 34.3861 167.661 34.6016C167.353 34.8137 167.199 35.0838 167.199 35.4119C167.199 35.7036 167.305 35.9339 167.517 36.103C167.729 36.272 168.06 36.4129 168.511 36.5256L169.645 36.804C170.327 36.9697 170.836 37.2232 171.171 37.5646C171.506 37.9027 171.673 38.3385 171.673 38.8722C171.673 39.3097 171.547 39.7008 171.295 40.0455C171.047 40.3902 170.699 40.6619 170.251 40.8608C169.804 41.0597 169.283 41.1591 168.69 41.1591C167.911 41.1591 167.266 40.9901 166.756 40.652C166.246 40.3139 165.922 39.8201 165.787 39.1705L166.9 38.892C167.006 39.303 167.207 39.6113 167.502 39.8168C167.8 40.0223 168.19 40.125 168.67 40.125C169.217 40.125 169.651 40.009 169.973 39.777C170.297 39.5417 170.46 39.2599 170.46 38.9318C170.46 38.6667 170.367 38.4446 170.181 38.2656C169.996 38.0833 169.711 37.9474 169.326 37.858L168.054 37.5597C167.354 37.3939 166.841 37.1371 166.512 36.7891C166.188 36.4377 166.025 35.9986 166.025 35.4716C166.025 35.0407 166.146 34.6596 166.388 34.3281C166.633 33.9967 166.967 33.7365 167.387 33.5476C167.812 33.3587 168.292 33.2642 168.829 33.2642C169.585 33.2642 170.178 33.4299 170.609 33.7614C171.043 34.0928 171.351 34.5303 171.534 35.0739ZM176.641 41.1591C175.905 41.1591 175.27 40.9967 174.737 40.6719C174.206 40.3438 173.797 39.8864 173.509 39.2997C173.224 38.7098 173.081 38.0237 173.081 37.2415C173.081 36.4593 173.224 35.7699 173.509 35.1733C173.797 34.5734 174.198 34.1061 174.712 33.7713C175.229 33.4332 175.832 33.2642 176.521 33.2642C176.919 33.2642 177.312 33.3305 177.7 33.4631C178.088 33.5956 178.441 33.8111 178.759 34.1094C179.077 34.4044 179.33 34.7955 179.519 35.2827C179.708 35.7699 179.803 36.3698 179.803 37.0824V37.5795H173.916V36.5653H178.61C178.61 36.1345 178.523 35.75 178.351 35.4119C178.182 35.0739 177.94 34.8071 177.625 34.6115C177.314 34.416 176.946 34.3182 176.521 34.3182C176.054 34.3182 175.65 34.4342 175.308 34.6662C174.97 34.8949 174.71 35.1932 174.528 35.5611C174.346 35.929 174.254 36.3234 174.254 36.7443V37.4205C174.254 37.9972 174.354 38.486 174.553 38.8871C174.755 39.2848 175.035 39.5881 175.393 39.7969C175.751 40.0024 176.167 40.1051 176.641 40.1051C176.949 40.1051 177.227 40.062 177.476 39.9759C177.728 39.8864 177.945 39.7538 178.127 39.5781C178.31 39.3991 178.45 39.1771 178.55 38.9119L179.683 39.2301C179.564 39.6146 179.364 39.9527 179.082 40.2443C178.8 40.5327 178.452 40.758 178.038 40.9205C177.624 41.0795 177.158 41.1591 176.641 41.1591Z" fill="#60A5FA"/>
<path d="M131.5 43.7841H180.519V44.7386H131.5V43.7841Z" fill="#60A5FA"/>
<path d="M3 71.5C2.6601 71.5 2.33724 71.4324 2.04316 71.3105L1.66011 72.2342C2.07348 72.4056 2.52635 72.5 3 72.5V71.5ZM0.689504 69.9568C0.567556 69.6628 0.5 69.3399 0.5 69H-0.5C-0.5 69.4736 -0.405639 69.9265 -0.234222 70.3399L0.689504 69.9568ZM0.5 69V68.0294H-0.5V69H0.5ZM0.5 66.0882V64.1471H-0.5V66.0882H0.5ZM0.5 62.2059V60.2647H-0.5V62.2059H0.5ZM0.5 58.3235V56.3824H-0.5V58.3235H0.5ZM0.5 54.4412V52.5H-0.5V54.4412H0.5ZM0.5 50.5588V48.6176H-0.5V50.5588H0.5ZM0.5 46.6765V44.7353H-0.5V46.6765H0.5ZM0.5 42.7941V40.8529H-0.5V42.7941H0.5ZM0.5 38.9118V36.9706H-0.5V38.9118H0.5ZM0.5 35.0294V33.0882H-0.5V35.0294H0.5ZM0.5 31.1471V29.2059H-0.5V31.1471H0.5ZM0.5 27.2647V25.3235H-0.5V27.2647H0.5ZM0.5 23.3823V21.4412H-0.5V23.3823H0.5ZM0.5 19.5V17.5588H-0.5V19.5H0.5ZM0.5 15.6176V13.6765H-0.5V15.6176H0.5ZM0.5 11.7353V9.7941H-0.5V11.7353H0.5ZM0.5 7.85292V5.91175H-0.5V7.85292H0.5ZM0.5 3.97057V3H-0.5V3.97057H0.5ZM0.5 3C0.5 2.6601 0.567556 2.33724 0.689505 2.04316L-0.234221 1.66011C-0.405639 2.07348 -0.5 2.52635 -0.5 3H0.5ZM2.04316 0.689505C2.33724 0.567556 2.6601 0.5 3 0.5V-0.5C2.52635 -0.5 2.07348 -0.405639 1.66011 -0.234221L2.04316 0.689505ZM3 0.5H3.99675V-0.5H3V0.5ZM5.99026 0.5H7.98377V-0.5H5.99026V0.5ZM9.97727 0.5H11.9708V-0.5H9.97727V0.5ZM13.9643 0.5H15.9578V-0.5H13.9643V0.5ZM17.9513 0.5H19.9448V-0.5H17.9513V0.5ZM21.9383 0.5H23.9318V-0.5H21.9383V0.5ZM25.9253 0.5H27.9188V-0.5H25.9253V0.5ZM29.9123 0.5H31.9058V-0.5H29.9123V0.5ZM33.8994 0.5H35.8929V-0.5H33.8994V0.5ZM37.8864 0.5H39.8799V-0.5H37.8864V0.5ZM41.8734 0.5H43.8669V-0.5H41.8734V0.5ZM45.8604 0.5H47.8539V-0.5H45.8604V0.5ZM49.8474 0.5H51.8409V-0.5H49.8474V0.5ZM53.8344 0.5H55.8279V-0.5H53.8344V0.5ZM57.8214 0.5H59.815V-0.5H57.8214V0.5ZM61.8085 0.5H63.802V-0.5H61.8085V0.5ZM65.7955 0.5H67.789V-0.5H65.7955V0.5ZM69.7825 0.5H71.776V-0.5H69.7825V0.5ZM73.7695 0.5H75.763V-0.5H73.7695V0.5ZM77.7565 0.5H79.75V-0.5H77.7565V0.5ZM81.7435 0.5H83.737V-0.5H81.7435V0.5ZM85.7305 0.5H87.7241V-0.5H85.7305V0.5ZM89.7176 0.5H91.7111V-0.5H89.7176V0.5ZM93.7046 0.5H95.6981V-0.5H93.7046V0.5ZM97.6916 0.5H99.6851V-0.5H97.6916V0.5ZM101.679 0.5H103.672V-0.5H101.679V0.5ZM105.666 0.5H107.659V-0.5H105.666V0.5ZM109.653 0.5H111.646V-0.5H109.653V0.5ZM113.64 0.5H115.633V-0.5H113.64V0.5ZM117.627 0.5H119.62V-0.5H117.627V0.5ZM121.614 0.5H123.607V-0.5H121.614V0.5ZM125.601 0.5H127.594V-0.5H125.601V0.5ZM129.588 0.5H131.581V-0.5H129.588V0.5ZM133.575 0.5H135.568V-0.5H133.575V0.5ZM137.562 0.5H139.555V-0.5H137.562V0.5ZM141.549 0.5H143.542V-0.5H141.549V0.5ZM145.536 0.5H147.529V-0.5H145.536V0.5ZM149.523 0.5H151.516V-0.5H149.523V0.5ZM153.51 0.5H155.503V-0.5H153.51V0.5ZM157.497 0.5H159.49V-0.5H157.497V0.5ZM161.484 0.5H163.477V-0.5H161.484V0.5ZM165.471 0.5H167.464V-0.5H165.471V0.5ZM169.458 0.5H171.451V-0.5H169.458V0.5ZM173.445 0.5H175.438V-0.5H173.445V0.5ZM177.432 0.5H179.425V-0.5H177.432V0.5ZM181.419 0.5H183.412V-0.5H181.419V0.5ZM185.406 0.5H187.399V-0.5H185.406V0.5ZM189.393 0.5H191.386V-0.5H189.393V0.5ZM193.38 0.5H195.373V-0.5H193.38V0.5ZM197.367 0.5H199.36V-0.5H197.367V0.5ZM201.354 0.5H203.347V-0.5H201.354V0.5ZM205.341 0.5H207.334V-0.5H205.341V0.5ZM209.328 0.5H211.321V-0.5H209.328V0.5ZM213.315 0.5H215.308V-0.5H213.315V0.5ZM217.302 0.5H219.295V-0.5H217.302V0.5ZM221.289 0.5H223.282V-0.5H221.289V0.5ZM225.276 0.5H227.269V-0.5H225.276V0.5ZM229.263 0.5H231.256V-0.5H229.263V0.5ZM233.25 0.5H235.243V-0.5H233.25V0.5ZM237.237 0.5H239.23V-0.5H237.237V0.5ZM241.224 0.5H243.217V-0.5H241.224V0.5ZM245.211 0.5H247.204V-0.5H245.211V0.5ZM249.198 0.5H251.191V-0.5H249.198V0.5ZM253.185 0.5H255.178V-0.5H253.185V0.5ZM257.172 0.5H259.165V-0.5H257.172V0.5ZM261.159 0.5H263.152V-0.5H261.159V0.5ZM265.146 0.5H267.139V-0.5H265.146V0.5ZM269.133 0.5H271.126V-0.5H269.133V0.5ZM273.12 0.5H275.113V-0.5H273.12V0.5ZM277.107 0.5H279.1V-0.5H277.107V0.5ZM281.094 0.5H283.087V-0.5H281.094V0.5ZM285.081 0.5H287.074V-0.5H285.081V0.5ZM289.068 0.5H291.061V-0.5H289.068V0.5ZM293.055 0.5H295.048V-0.5H293.055V0.5ZM297.042 0.5H299.035V-0.5H297.042V0.5ZM301.029 0.5H303.022V-0.5H301.029V0.5ZM305.016 0.5H307.009V-0.5H305.016V0.5ZM309.003 0.5H310V-0.5H309.003V0.5ZM310 0.5C310.34 0.5 310.663 0.567556 310.957 0.689505L311.34 -0.234221C310.927 -0.405639 310.474 -0.5 310 -0.5V0.5ZM312.31 2.04316C312.432 2.33724 312.5 2.6601 312.5 3H313.5C313.5 2.52635 313.406 2.07348 313.234 1.66011L312.31 2.04316ZM312.5 3V3.97059H313.5V3H312.5ZM312.5 5.91176V7.85294H313.5V5.91176H312.5ZM312.5 9.79412V11.7353H313.5V9.79412H312.5ZM312.5 13.6765V15.6176H313.5V13.6765H312.5ZM312.5 17.5588V19.5H313.5V17.5588H312.5ZM312.5 21.4412V23.3824H313.5V21.4412H312.5ZM312.5 25.3235V27.2647H313.5V25.3235H312.5ZM312.5 29.2059V31.1471H313.5V29.2059H312.5ZM312.5 33.0882V35.0294H313.5V33.0882H312.5ZM312.5 36.9706V38.9118H313.5V36.9706H312.5ZM312.5 40.8529V42.7941H313.5V40.8529H312.5ZM312.5 44.7353V46.6765H313.5V44.7353H312.5ZM312.5 48.6177V50.5588H313.5V48.6177H312.5ZM312.5 52.5V54.4412H313.5V52.5H312.5ZM312.5 56.3824V58.3235H313.5V56.3824H312.5ZM312.5 60.2647V62.2059H313.5V60.2647H312.5ZM312.5 64.1471V66.0883H313.5V64.1471H312.5ZM312.5 68.0294V69H313.5V68.0294H312.5ZM312.5 69C312.5 69.3399 312.432 69.6628 312.31 69.9568L313.234 70.3399C313.406 69.9265 313.5 69.4736 313.5 69H312.5ZM310.957 71.3105C310.663 71.4324 310.34 71.5 310 71.5V72.5C310.474 72.5 310.927 72.4056 311.34 72.2342L310.957 71.3105ZM310 71.5H309.003V72.5H310V71.5ZM307.01 71.5H305.016V72.5H307.01V71.5ZM303.023 71.5H301.029V72.5H303.023V71.5ZM299.036 71.5H297.042V72.5H299.036V71.5ZM295.049 71.5H293.055V72.5H295.049V71.5ZM291.062 71.5H289.068V72.5H291.062V71.5ZM287.075 71.5H285.081V72.5H287.075V71.5ZM283.088 71.5H281.094V72.5H283.088V71.5ZM279.101 71.5H277.107V72.5H279.101V71.5ZM275.114 71.5H273.12V72.5H275.114V71.5ZM271.127 71.5H269.133V72.5H271.127V71.5ZM267.14 71.5H265.146V72.5H267.14V71.5ZM263.153 71.5H261.159V72.5H263.153V71.5ZM259.166 71.5H257.172V72.5H259.166V71.5ZM255.179 71.5H253.185V72.5H255.179V71.5ZM251.192 71.5H249.198V72.5H251.192V71.5ZM247.205 71.5H245.211V72.5H247.205V71.5ZM243.218 71.5H241.224V72.5H243.218V71.5ZM239.23 71.5H237.237V72.5H239.23V71.5ZM235.243 71.5H233.25V72.5H235.243V71.5ZM231.256 71.5H229.263V72.5H231.256V71.5ZM227.269 71.5H225.276V72.5H227.269V71.5ZM223.282 71.5H221.289V72.5H223.282V71.5ZM219.295 71.5H217.302V72.5H219.295V71.5ZM215.308 71.5H213.315V72.5H215.308V71.5ZM211.321 71.5H209.328V72.5H211.321V71.5ZM207.334 71.5H205.341V72.5H207.334V71.5ZM203.347 71.5H201.354V72.5H203.347V71.5ZM199.36 71.5H197.367V72.5H199.36V71.5ZM195.373 71.5H193.38V72.5H195.373V71.5ZM191.386 71.5H189.393V72.5H191.386V71.5ZM187.399 71.5H185.406V72.5H187.399V71.5ZM183.412 71.5H181.419V72.5H183.412V71.5ZM179.425 71.5H177.432V72.5H179.425V71.5ZM175.438 71.5H173.445V72.5H175.438V71.5ZM171.451 71.5H169.458V72.5H171.451V71.5ZM167.464 71.5H165.471V72.5H167.464V71.5ZM163.477 71.5H161.484V72.5H163.477V71.5ZM159.49 71.5H157.497V72.5H159.49V71.5ZM155.503 71.5H153.51V72.5H155.503V71.5ZM151.516 71.5H149.523V72.5H151.516V71.5ZM147.529 71.5H145.536V72.5H147.529V71.5ZM143.542 71.5H141.549V72.5H143.542V71.5ZM139.555 71.5H137.562V72.5H139.555V71.5ZM135.568 71.5H133.575V72.5H135.568V71.5ZM131.581 71.5H129.588V72.5H131.581V71.5ZM127.594 71.5H125.601V72.5H127.594V71.5ZM123.607 71.5H121.614V72.5H123.607V71.5ZM119.62 71.5H117.627V72.5H119.62V71.5ZM115.633 71.5H113.64V72.5H115.633V71.5ZM111.646 71.5H109.653V72.5H111.646V71.5ZM107.659 71.5H105.666V72.5H107.659V71.5ZM103.672 71.5H101.679V72.5H103.672V71.5ZM99.6853 71.5H97.6918V72.5H99.6853V71.5ZM95.6983 71.5H93.7048V72.5H95.6983V71.5ZM91.7113 71.5H89.7178V72.5H91.7113V71.5ZM87.7243 71.5H85.7308V72.5H87.7243V71.5ZM83.7373 71.5H81.7438V72.5H83.7373V71.5ZM79.7503 71.5H77.7568V72.5H79.7503V71.5ZM75.7633 71.5H73.7698V72.5H75.7633V71.5ZM71.7763 71.5H69.7828V72.5H71.7763V71.5ZM67.7893 71.5H65.7958V72.5H67.7893V71.5ZM63.8023 71.5H61.8088V72.5H63.8023V71.5ZM59.8153 71.5H57.8218V72.5H59.8153V71.5ZM55.8283 71.5H53.8348V72.5H55.8283V71.5ZM51.8413 71.5H49.8478V72.5H51.8413V71.5ZM47.8543 71.5H45.8608V72.5H47.8543V71.5ZM43.8673 71.5H41.8738V72.5H43.8673V71.5ZM39.8803 71.5H37.8868V72.5H39.8803V71.5ZM35.8933 71.5H33.8998V72.5H35.8933V71.5ZM31.9063 71.5H29.9128V72.5H31.9063V71.5ZM27.9193 71.5H25.9258V72.5H27.9193V71.5ZM23.9323 71.5H21.9388V72.5H23.9323V71.5ZM19.9453 71.5H17.9518V72.5H19.9453V71.5ZM15.9583 71.5H13.9648V72.5H15.9583V71.5ZM11.9713 71.5H9.97782V72.5H11.9713V71.5ZM7.98431 71.5H5.99082V72.5H7.98431V71.5ZM3.99731 71.5H3V72.5H3.99731V71.5ZM3 71C2.72697 71 2.46912 70.9458 2.23469 70.8486L1.46858 72.6961C1.9416 72.8922 2.45948 73 3 73V71ZM1.15137 69.7653C1.05415 69.5309 1 69.273 1 69H-1C-1 69.5405 -0.892237 70.0584 -0.696085 70.5314L1.15137 69.7653ZM1 69V68.0294H-1V69H1ZM1 66.0882V64.1471H-1V66.0882H1ZM1 62.2059V60.2647H-1V62.2059H1ZM1 58.3235V56.3824H-1V58.3235H1ZM1 54.4412V52.5H-1V54.4412H1ZM1 50.5588V48.6176H-1V50.5588H1ZM1 46.6765V44.7353H-1V46.6765H1ZM1 42.7941V40.8529H-1V42.7941H1ZM1 38.9118V36.9706H-1V38.9118H1ZM1 35.0294V33.0882H-1V35.0294H1ZM1 31.1471V29.2059H-1V31.1471H1ZM1 27.2647V25.3235H-1V27.2647H1ZM1 23.3823V21.4412H-1V23.3823H1ZM1 19.5V17.5588H-1V19.5H1ZM1 15.6176V13.6765H-1V15.6176H1ZM1 11.7353V9.7941H-1V11.7353H1ZM1 7.85292V5.91175H-1V7.85292H1ZM1 3.97057V3H-1V3.97057H1ZM1 3C1 2.72698 1.05415 2.46912 1.15137 2.23469L-0.696084 1.46858C-0.892237 1.9416 -1 2.45948 -1 3H1ZM2.23469 1.15137C2.46912 1.05415 2.72697 1 3 1V-1C2.45948 -1 1.9416 -0.892237 1.46858 -0.696084L2.23469 1.15137ZM3 1H3.99675V-1H3V1ZM5.99026 1H7.98377V-1H5.99026V1ZM9.97727 1H11.9708V-1H9.97727V1ZM13.9643 1H15.9578V-1H13.9643V1ZM17.9513 1H19.9448V-1H17.9513V1ZM21.9383 1H23.9318V-1H21.9383V1ZM25.9253 1H27.9188V-1H25.9253V1ZM29.9123 1H31.9058V-1H29.9123V1ZM33.8994 1H35.8929V-1H33.8994V1ZM37.8864 1H39.8799V-1H37.8864V1ZM41.8734 1H43.8669V-1H41.8734V1ZM45.8604 1H47.8539V-1H45.8604V1ZM49.8474 1H51.8409V-1H49.8474V1ZM53.8344 1H55.8279V-1H53.8344V1ZM57.8214 1H59.815V-1H57.8214V1ZM61.8085 1H63.802V-1H61.8085V1ZM65.7955 1H67.789V-1H65.7955V1ZM69.7825 1H71.776V-1H69.7825V1ZM73.7695 1H75.763V-1H73.7695V1ZM77.7565 1H79.75V-1H77.7565V1ZM81.7435 1H83.737V-1H81.7435V1ZM85.7305 1H87.7241V-1H85.7305V1ZM89.7176 1H91.7111V-1H89.7176V1ZM93.7046 1H95.6981V-1H93.7046V1ZM97.6916 1H99.6851V-1H97.6916V1ZM101.679 1H103.672V-1H101.679V1ZM105.666 1H107.659V-1H105.666V1ZM109.653 1H111.646V-1H109.653V1ZM113.64 1H115.633V-1H113.64V1ZM117.627 1H119.62V-1H117.627V1ZM121.614 1H123.607V-1H121.614V1ZM125.601 1H127.594V-1H125.601V1ZM129.588 1H131.581V-1H129.588V1ZM133.575 1H135.568V-1H133.575V1ZM137.562 1H139.555V-1H137.562V1ZM141.549 1H143.542V-1H141.549V1ZM145.536 1H147.529V-1H145.536V1ZM149.523 1H151.516V-1H149.523V1ZM153.51 1H155.503V-1H153.51V1ZM157.497 1H159.49V-1H157.497V1ZM161.484 1H163.477V-1H161.484V1ZM165.471 1H167.464V-1H165.471V1ZM169.458 1H171.451V-1H169.458V1ZM173.445 1H175.438V-1H173.445V1ZM177.432 1H179.425V-1H177.432V1ZM181.419 1H183.412V-1H181.419V1ZM185.406 1H187.399V-1H185.406V1ZM189.393 1H191.386V-1H189.393V1ZM193.38 1H195.373V-1H193.38V1ZM197.367 1H199.36V-1H197.367V1ZM201.354 1H203.347V-1H201.354V1ZM205.341 1H207.334V-1H205.341V1ZM209.328 1H211.321V-1H209.328V1ZM213.315 1H215.308V-1H213.315V1ZM217.302 1H219.295V-1H217.302V1ZM221.289 1H223.282V-1H221.289V1ZM225.276 1H227.269V-1H225.276V1ZM229.263 1H231.256V-1H229.263V1ZM233.25 1H235.243V-1H233.25V1ZM237.237 1H239.23V-1H237.237V1ZM241.224 1H243.217V-1H241.224V1ZM245.211 1H247.204V-1H245.211V1ZM249.198 1H251.191V-1H249.198V1ZM253.185 1H255.178V-1H253.185V1ZM257.172 1H259.165V-1H257.172V1ZM261.159 1H263.152V-1H261.159V1ZM265.146 1H267.139V-1H265.146V1ZM269.133 1H271.126V-1H269.133V1ZM273.12 1H275.113V-1H273.12V1ZM277.107 1H279.1V-1H277.107V1ZM281.094 1H283.087V-1H281.094V1ZM285.081 1H287.074V-1H285.081V1ZM289.068 1H291.061V-1H289.068V1ZM293.055 1H295.048V-1H293.055V1ZM297.042 1H299.035V-1H297.042V1ZM301.029 1H303.022V-1H301.029V1ZM305.016 1H307.009V-1H305.016V1ZM309.003 1H310V-1H309.003V1ZM310 1C310.273 1 310.531 1.05415 310.765 1.15137L311.531 -0.696084C311.058 -0.892237 310.541 -1 310 -1V1ZM311.849 2.23469C311.946 2.46912 312 2.72697 312 3H314C314 2.45948 313.892 1.9416 313.696 1.46858L311.849 2.23469ZM312 3V3.97059H314V3H312ZM312 5.91176V7.85294H314V5.91176H312ZM312 9.79412V11.7353H314V9.79412H312ZM312 13.6765V15.6176H314V13.6765H312ZM312 17.5588V19.5H314V17.5588H312ZM312 21.4412V23.3824H314V21.4412H312ZM312 25.3235V27.2647H314V25.3235H312ZM312 29.2059V31.1471H314V29.2059H312ZM312 33.0882V35.0294H314V33.0882H312ZM312 36.9706V38.9118H314V36.9706H312ZM312 40.8529V42.7941H314V40.8529H312ZM312 44.7353V46.6765H314V44.7353H312ZM312 48.6177V50.5588H314V48.6177H312ZM312 52.5V54.4412H314V52.5H312ZM312 56.3824V58.3235H314V56.3824H312ZM312 60.2647V62.2059H314V60.2647H312ZM312 64.1471V66.0883H314V64.1471H312ZM312 68.0294V69H314V68.0294H312ZM312 69C312 69.273 311.946 69.5309 311.849 69.7653L313.696 70.5314C313.892 70.0584 314 69.5405 314 69H312ZM310.765 70.8486C310.531 70.9458 310.273 71 310 71V73C310.541 73 311.058 72.8922 311.531 72.6961L310.765 70.8486ZM310 71H309.003V73H310V71ZM307.01 71H305.016V73H307.01V71ZM303.023 71H301.029V73H303.023V71ZM299.036 71H297.042V73H299.036V71ZM295.049 71H293.055V73H295.049V71ZM291.062 71H289.068V73H291.062V71ZM287.075 71H285.081V73H287.075V71ZM283.088 71H281.094V73H283.088V71ZM279.101 71H277.107V73H279.101V71ZM275.114 71H273.12V73H275.114V71ZM271.127 71H269.133V73H271.127V71ZM267.14 71H265.146V73H267.14V71ZM263.153 71H261.159V73H263.153V71ZM259.166 71H257.172V73H259.166V71ZM255.179 71H253.185V73H255.179V71ZM251.192 71H249.198V73H251.192V71ZM247.205 71H245.211V73H247.205V71ZM243.218 71H241.224V73H243.218V71ZM239.23 71H237.237V73H239.23V71ZM235.243 71H233.25V73H235.243V71ZM231.256 71H229.263V73H231.256V71ZM227.269 71H225.276V73H227.269V71ZM223.282 71H221.289V73H223.282V71ZM219.295 71H217.302V73H219.295V71ZM215.308 71H213.315V73H215.308V71ZM211.321 71H209.328V73H211.321V71ZM207.334 71H205.341V73H207.334V71ZM203.347 71H201.354V73H203.347V71ZM199.36 71H197.367V73H199.36V71ZM195.373 71H193.38V73H195.373V71ZM191.386 71H189.393V73H191.386V71ZM187.399 71H185.406V73H187.399V71ZM183.412 71H181.419V73H183.412V71ZM179.425 71H177.432V73H179.425V71ZM175.438 71H173.445V73H175.438V71ZM171.451 71H169.458V73H171.451V71ZM167.464 71H165.471V73H167.464V71ZM163.477 71H161.484V73H163.477V71ZM159.49 71H157.497V73H159.49V71ZM155.503 71H153.51V73H155.503V71ZM151.516 71H149.523V73H151.516V71ZM147.529 71H145.536V73H147.529V71ZM143.542 71H141.549V73H143.542V71ZM139.555 71H137.562V73H139.555V71ZM135.568 71H133.575V73H135.568V71ZM131.581 71H129.588V73H131.581V71ZM127.594 71H125.601V73H127.594V71ZM123.607 71H121.614V73H123.607V71ZM119.62 71H117.627V73H119.62V71ZM115.633 71H113.64V73H115.633V71ZM111.646 71H109.653V73H111.646V71ZM107.659 71H105.666V73H107.659V71ZM103.672 71H101.679V73H103.672V71ZM99.6853 71H97.6918V73H99.6853V71ZM95.6983 71H93.7048V73H95.6983V71ZM91.7113 71H89.7178V73H91.7113V71ZM87.7243 71H85.7308V73H87.7243V71ZM83.7373 71H81.7438V73H83.7373V71ZM79.7503 71H77.7568V73H79.7503V71ZM75.7633 71H73.7698V73H75.7633V71ZM71.7763 71H69.7828V73H71.7763V71ZM67.7893 71H65.7958V73H67.7893V71ZM63.8023 71H61.8088V73H63.8023V71ZM59.8153 71H57.8218V73H59.8153V71ZM55.8283 71H53.8348V73H55.8283V71ZM51.8413 71H49.8478V73H51.8413V71ZM47.8543 71H45.8608V73H47.8543V71ZM43.8673 71H41.8738V73H43.8673V71ZM39.8803 71H37.8868V73H39.8803V71ZM35.8933 71H33.8998V73H35.8933V71ZM31.9063 71H29.9128V73H31.9063V71ZM27.9193 71H25.9258V73H27.9193V71ZM23.9323 71H21.9388V73H23.9323V71ZM19.9453 71H17.9518V73H19.9453V71ZM15.9583 71H13.9648V73H15.9583V71ZM11.9713 71H9.97782V73H11.9713V71ZM7.98431 71H5.99082V73H7.98431V71ZM3.99731 71H3V73H3.99731V71Z" fill="#BAC7D5"/>
</svg>
