<svg width="30" height="30" viewBox="0 0 30 30" fill="none" xmlns="http://www.w3.org/2000/svg">
<path opacity="0.4" d="M27.9375 15C27.9375 20.8657 23.9881 26.0105 18.3208 27.5104C18.259 27.5202 18.2145 27.525 18.1875 27.525C17.9923 27.525 17.8121 27.3941 17.7592 27.2003C17.7003 26.957 17.8407 26.7214 18.068 26.6577C23.3614 25.2611 27.05 20.463 27.05 14.9875C27.05 8.33636 21.6386 2.925 14.9875 2.925C9.36581 2.925 5.69004 6.2107 3.98514 8.17197L3.26535 9H4.3625H8.0375C8.27386 9 8.475 9.20114 8.475 9.4375C8.475 9.69583 8.27739 9.8875 8.05 9.8875H2.5125C2.47623 9.8875 2.43816 9.88278 2.39733 9.87198C2.33246 9.84935 2.28139 9.82226 2.24062 9.79313L2.23406 9.78845L2.22735 9.78397C2.18915 9.75851 2.1558 9.72306 2.12918 9.67773C2.08684 9.59163 2.06893 9.5377 2.0625 9.49635V9.49634V9.49615V9.49596V9.49577V9.49558V9.49539V9.4952V9.49501V9.49482V9.49463V9.49444V9.49425V9.49406V9.49387V9.49369V9.4935V9.49331V9.49312V9.49293V9.49274V9.49255V9.49237V9.49218V9.49199V9.4918V9.49162V9.49143V9.49124V9.49105V9.49087V9.49068V9.49049V9.4903V9.49012V9.48993V9.48974V9.48956V9.48937V9.48918V9.489V9.48881V9.48863V9.48844V9.48825V9.48807V9.48788V9.4877V9.48751V9.48732V9.48714V9.48695V9.48677V9.48658V9.4864V9.48621V9.48603V9.48584V9.48566V9.48547V9.48529V9.4851V9.48492V9.48473V9.48455V9.48436V9.48418V9.48399V9.48381V9.48362V9.48344V9.48326V9.48307V9.48289V9.4827V9.48252V9.48234V9.48215V9.48197V9.48178V9.4816V9.48142V9.48123V9.48105V9.48087V9.48068V9.4805V9.48031V9.48013V9.47995V9.47976V9.47958V9.4794V9.47921V9.47903V9.47885V9.47866V9.47848V9.4783V9.47811V9.47793V9.47775V9.47756V9.47738V9.4772V9.47701V9.47683V9.47665V9.47646V9.47628V9.4761V9.47592V9.47573V9.47555V9.47537V9.47518V9.475V9.47482V9.47463V9.47445V9.47427V9.47408V9.4739V9.47372V9.47354V9.47335V9.47317V9.47299V9.4728V9.47262V9.47244V9.47225V9.47207V9.47189V9.4717V9.47152V9.47134V9.47115V9.47097V9.47079V9.4706V9.47042V9.47024V9.47005V9.46987V9.46969V9.4695V9.46932V9.46913V9.46895V9.46877V9.46858V9.4684V9.46822V9.46803V9.46785V9.46766V9.46748V9.4673V9.46711V9.46693V9.46674V9.46656V9.46637V9.46619V9.46601V9.46582V9.46564V9.46545V9.46527V9.46508V9.4649V9.46471V9.46453V9.46434V9.46416V9.46397V9.46379V9.4636V9.46342V9.46323V9.46305V9.46286V9.46268V9.46249V9.4623V9.46212V9.46193V9.46175V9.46156V9.46137V9.46119V9.461V9.46082V9.46063V9.46044V9.46026V9.46007V9.45988V9.4597V9.45951V9.45932V9.45913V9.45895V9.45876V9.45857V9.45838V9.4582V9.45801V9.45782V9.45763V9.45745V9.45726V9.45707V9.45688V9.45669V9.4565V9.45631V9.45613V9.45594V9.45575V9.45556V9.45537V9.45518V9.45499V9.4548V9.45461V9.45442V9.45423V9.45404V9.45385V9.45366V9.45347V9.45328V9.45309V9.4529V9.45271V9.45251V9.45232V9.45213V9.45194V9.45175V9.45156V9.45136V9.45117V9.45098V9.45079V9.45059V9.4504V9.45021V9.45002V9.44982V9.44963V9.44944V9.44924V9.44905V9.44885V9.44866V9.44847V9.44827V9.44808V9.44788V9.44769V9.44749V9.4473V9.4471V9.44691V9.44671V9.44651V9.44632V9.44612V9.44593V9.44573V9.44553V9.44533V9.44514V9.44494V9.44474V9.44455V9.44435V9.44415V9.44395V9.44375V9.44355V9.44336V9.44316V9.44296V9.44276V9.44256V9.44236V9.44216V9.44196V9.44176V9.44156V9.44136V9.44116V9.44095V9.44075V9.44055V9.44035V9.44015V9.43995V9.43974V9.43954V9.43934V9.43914V9.43893V9.43873V9.43853V9.43832V9.43812V9.43791V9.43771V9.4375V9.4373V9.43709V9.43689V9.43668V9.43648V9.43627V9.43607V9.43586V9.43565V9.43545V9.43524V9.43503V9.43482V9.43462V9.43441V9.4342V9.43399V9.43378V9.43357V9.43336V9.43315V9.43294V9.43273V9.43252V9.43231V9.4321V9.43189V9.43168V9.43147V9.43126V9.43104V9.43083V9.43062V9.43041V9.43019V9.42998V9.42977V9.42955V9.42934V9.42912V9.42891V9.4287V9.42848V9.42826V9.42805V9.42783V9.42762V9.4274V9.42718V9.42697V9.42675V9.42653V9.42631V9.4261V9.42588V9.42566V9.42544V9.42522V9.425V3.75C2.0625 3.51364 2.26364 3.3125 2.5 3.3125C2.73636 3.3125 2.9375 3.51364 2.9375 3.75V6.7375V8.00791L3.80338 7.07829C5.78775 4.94782 9.50221 2.0625 15 2.0625C22.1364 2.0625 27.9375 7.86364 27.9375 15Z" fill="#7F60D2" stroke="#7F60D2"/>
<path d="M14.1125 28.4125C14.0875 28.4125 14.05 28.4125 14.025 28.4C12.6875 28.3125 11.375 28.0125 10.125 27.525C9.7625 27.3875 9.525 27.025 9.525 26.6375C9.525 26.525 9.55 26.4125 9.5875 26.3125C9.775 25.8375 10.325 25.5875 10.8 25.775C11.875 26.2 13.0125 26.45 14.1625 26.5375H14.175C14.675 26.5625 15.05 26.9875 15.05 27.4875C15.05 27.5 15.05 27.525 15.05 27.5375C15.0125 28.025 14.6 28.4125 14.1125 28.4125ZM7.225 25.725C7.0125 25.725 6.8125 25.6625 6.6375 25.525C5.5875 24.6875 4.675 23.7 3.9125 22.5875C3.8 22.425 3.7375 22.25 3.7375 22.0625C3.7375 21.75 3.8875 21.4625 4.15 21.2875C4.5625 21 5.175 21.1125 5.45 21.525C6.1125 22.4875 6.9 23.3375 7.8125 24.05C8.025 24.225 8.1625 24.4875 8.1625 24.775C8.1625 24.9875 8.1 25.2 7.9625 25.375C7.7875 25.6 7.5125 25.725 7.225 25.725ZM3.05 19.625C2.6375 19.625 2.275 19.3625 2.1625 18.975C1.7625 17.6875 1.5625 16.35 1.5625 15C1.5625 14.4875 1.9875 14.0625 2.5 14.0625C3.0125 14.0625 3.4375 14.4875 3.4375 15C3.4375 16.1625 3.6125 17.3125 3.95 18.4125C3.975 18.5 3.9875 18.6 3.9875 18.7C3.9875 19.1125 3.725 19.4625 3.3375 19.5875C3.2375 19.6125 3.15 19.625 3.05 19.625Z" fill="#7F60D2"/>
<path opacity="0.4" d="M19.5 15C19.5 17.4853 17.4853 19.5 15 19.5C12.5147 19.5 10.5 17.4853 10.5 15C10.5 12.5147 12.5147 10.5 15 10.5C17.4853 10.5 19.5 12.5147 19.5 15Z" fill="#7F60D2" stroke="#7F60D2"/>
</svg>
