<svg width="16" height="15" viewBox="0 0 16 15" fill="none" xmlns="http://www.w3.org/2000/svg">
<path fill-rule="evenodd" clip-rule="evenodd" d="M8.00025 4.6875C6.44695 4.6875 5.18775 5.9467 5.18775 7.5C5.18775 9.0533 6.44695 10.3125 8.00025 10.3125C9.55355 10.3125 10.8127 9.0533 10.8127 7.5C10.8127 5.9467 9.55355 4.6875 8.00025 4.6875ZM6.31275 7.5C6.31275 6.56802 7.06827 5.8125 8.00025 5.8125C8.93223 5.8125 9.68775 6.56802 9.68775 7.5C9.68775 8.43198 8.93223 9.1875 8.00025 9.1875C7.06827 9.1875 6.31275 8.43198 6.31275 7.5Z" fill="white"/>
<path fill-rule="evenodd" clip-rule="evenodd" d="M8.00025 0.9375C6.39453 0.9375 4.94268 1.73174 3.76404 2.69679C2.57897 3.6671 1.60996 4.85899 0.958807 5.76601L0.905104 5.84069C0.513108 6.38538 0.19043 6.83374 0.19043 7.5C0.19043 8.16626 0.513108 8.61462 0.905104 9.15931L0.958807 9.23399C1.60996 10.141 2.57897 11.3329 3.76404 12.3032C4.94268 13.2683 6.39453 14.0625 8.00025 14.0625C9.60596 14.0625 11.0578 13.2683 12.2365 12.3032C13.4215 11.3329 14.3905 10.141 15.0417 9.23399L15.0954 9.15931C15.4874 8.61462 15.8101 8.16626 15.8101 7.5C15.8101 6.83374 15.4874 6.38538 15.0954 5.8407L15.0417 5.76601C14.3905 4.85899 13.4215 3.6671 12.2365 2.69679C11.0578 1.73174 9.60596 0.9375 8.00025 0.9375ZM1.87269 6.42209C2.49464 5.55574 3.39786 4.4506 4.47675 3.56723C5.56207 2.67859 6.76592 2.0625 8.00025 2.0625C9.23458 2.0625 10.4384 2.67859 11.5237 3.56723C12.6026 4.4506 13.5059 5.55574 14.1278 6.42209C14.5958 7.07395 14.6851 7.23111 14.6851 7.5C14.6851 7.76889 14.5958 7.92605 14.1278 8.57791C13.5059 9.44426 12.6026 10.5494 11.5237 11.4328C10.4384 12.3214 9.23458 12.9375 8.00025 12.9375C6.76592 12.9375 5.56207 12.3214 4.47675 11.4328C3.39786 10.5494 2.49464 9.44426 1.87269 8.57791C1.40472 7.92605 1.31543 7.76889 1.31543 7.5C1.31543 7.23111 1.40472 7.07395 1.87269 6.42209Z" fill="white"/>
</svg>
