<svg width="24" height="24" viewBox="0 0 24 24" fill="none" xmlns="http://www.w3.org/2000/svg">
<path d="M12 2.4375C10.3326 2.43777 8.69415 2.87407 7.24737 3.70309C5.80059 4.53211 4.59573 5.72504 3.75236 7.1635C2.909 8.60196 2.45643 10.236 2.43958 11.9033C2.42272 13.5707 2.84216 15.2135 3.65628 16.6688L2.83128 19.5469C2.76391 19.7721 2.75874 20.0114 2.81631 20.2394C2.87389 20.4673 2.99206 20.6755 3.15831 20.8417C3.32457 21.008 3.5327 21.1261 3.76065 21.1837C3.98861 21.2413 4.2279 21.2361 4.45315 21.1688L7.33128 20.3438C8.60656 21.0578 10.0285 21.4699 11.488 21.5486C12.9474 21.6273 14.4055 21.3704 15.7501 20.7977C17.0948 20.2249 18.2903 19.3516 19.2447 18.2447C20.1992 17.1378 20.8872 15.8269 21.256 14.4126C21.6247 12.9983 21.6644 11.5183 21.3719 10.0863C21.0794 8.65435 20.4625 7.30846 19.5687 6.15207C18.6749 4.99567 17.5279 4.05955 16.2159 3.41561C14.9038 2.77168 13.4616 2.43707 12 2.4375ZM12 20.4375C10.4856 20.4371 8.99928 20.029 7.6969 19.2562C7.60738 19.2085 7.50774 19.1828 7.40628 19.1813C7.35555 19.1782 7.3047 19.1846 7.25628 19.2L4.14378 20.0906C4.1112 20.1007 4.0765 20.1016 4.04342 20.0934C4.01034 20.0852 3.98012 20.0681 3.95602 20.044C3.93191 20.0199 3.91484 19.9897 3.90663 19.9566C3.89841 19.9235 3.89937 19.8888 3.9094 19.8563L4.80003 16.7438C4.82105 16.6703 4.82691 16.5934 4.81724 16.5176C4.80757 16.4419 4.78257 16.3689 4.74378 16.3031C3.79435 14.7018 3.40116 12.8314 3.62547 10.9834C3.84978 9.1353 4.67899 7.4133 5.98393 6.08559C7.28887 4.75789 8.99627 3.89903 10.8402 3.6428C12.6841 3.38657 14.561 3.74736 16.1785 4.66896C17.796 5.59056 19.0633 7.02123 19.783 8.73812C20.5027 10.455 20.6344 12.3617 20.1575 14.1612C19.6807 15.9608 18.6221 17.5521 17.1466 18.6873C15.6711 19.8225 13.8617 20.4378 12 20.4375ZM16.8282 13.575L14.9063 12.4781C14.704 12.364 14.475 12.3056 14.2428 12.3089C14.0106 12.3122 13.7834 12.3771 13.5844 12.4969L12.3844 13.2188C11.7024 12.8558 11.1442 12.2976 10.7813 11.6156L11.5032 10.4156C11.623 10.2167 11.6878 9.98945 11.6911 9.75722C11.6944 9.52499 11.636 9.29604 11.5219 9.09375L10.425 7.17188C10.3185 6.9874 10.1655 6.83406 9.9813 6.72715C9.79707 6.62023 9.58804 6.56346 9.37503 6.5625C8.53127 6.5625 7.72194 6.89703 7.12443 7.49278C6.52693 8.08853 6.19001 8.89687 6.18753 9.74063C6.1863 10.8002 6.39393 11.8496 6.79856 12.8289C7.20318 13.8082 7.79687 14.6981 8.54566 15.4477C9.29446 16.1974 10.1837 16.7921 11.1625 17.1979C12.1413 17.6036 13.1905 17.8125 14.25 17.8125H14.2594C15.1032 17.81 15.9115 17.4731 16.5072 16.8756C17.103 16.2781 17.4375 15.4688 17.4375 14.625C17.4366 14.412 17.3798 14.203 17.2729 14.0187C17.166 13.8345 17.0126 13.6815 16.8282 13.575ZM14.2594 16.6875H14.25C12.4092 16.685 10.6447 15.952 9.34391 14.6495C8.04314 13.347 7.31253 11.5814 7.31253 9.74063C7.31501 9.19524 7.5334 8.67304 7.91992 8.28827C8.30645 7.90351 8.82964 7.68749 9.37503 7.6875C9.40393 7.68987 9.4308 7.7033 9.45003 7.725L10.5469 9.64688C10.562 9.6762 10.569 9.70897 10.5674 9.74188C10.5657 9.7748 10.5554 9.8067 10.5375 9.83438L9.66565 11.3063C9.61629 11.382 9.58696 11.469 9.5804 11.5592C9.57384 11.6494 9.59027 11.7398 9.62815 11.8219C10.1407 12.9531 11.047 13.8594 12.1782 14.3719C12.2603 14.4098 12.3506 14.4262 12.4408 14.4196C12.531 14.4131 12.618 14.3837 12.6938 14.3344L14.1657 13.4625C14.1933 13.4446 14.2252 13.4343 14.2581 13.4327C14.2911 13.431 14.3238 13.4381 14.3532 13.4531L16.275 14.55C16.2967 14.5692 16.3102 14.5961 16.3125 14.625C16.3125 15.1704 16.0965 15.6936 15.7118 16.0801C15.327 16.4666 14.8048 16.685 14.2594 16.6875Z" fill="#7F60D2"/>
</svg>
